<svg width="974" height="767" viewBox="0 0 974 767" fill="none" xmlns="http://www.w3.org/2000/svg"><path d="M567.449 7.42199C574.237 8.09374 580.931 8.81736 587.518 9.59529L587.46 10.0918C590.812 10.4877 594.137 10.8976 597.433 11.3219C600.844 11.761 604.288 12.2238 607.762 12.709L607.831 12.2138C614.606 13.16 621.494 14.1913 628.475 15.2986L628.396 15.7924C635.18 16.8686 642.051 18.0166 648.987 19.2279L649.073 18.7353C655.865 19.9216 662.721 21.1685 669.619 22.4681L669.526 22.9595C676.319 24.2392 683.153 25.5701 690.01 26.9445L690.108 26.4543C696.908 27.8172 703.731 29.223 710.557 30.6641L710.454 31.1533C717.257 32.5895 724.065 34.0609 730.858 35.5601L730.965 35.0718C737.775 36.5747 744.571 38.1054 751.334 39.6567L751.222 40.144C758.037 41.7071 764.818 43.291 771.547 44.8881L771.663 44.4016C778.489 46.0216 785.261 47.6553 791.96 49.2946L791.841 49.7802C798.68 51.4536 805.442 53.133 812.108 54.8099L812.23 54.325C819.083 56.0491 825.834 57.7706 832.46 59.4804L832.335 59.9645C839.209 61.7384 845.948 63.4995 852.527 65.2378L852.655 64.7544C859.568 66.5809 866.304 68.3821 872.834 70.1463L872.704 70.6289C876.112 71.5496 879.464 72.4602 882.755 73.3589C886.146 74.2847 889.466 75.3465 892.711 76.5372L892.884 76.0679C899.539 78.5097 905.881 81.4919 911.872 84.9546L911.622 85.3875C917.701 88.901 923.417 92.9114 928.729 97.3557L929.05 96.9722C934.434 101.476 939.405 106.424 943.92 111.751L943.539 112.074C948.044 117.388 952.095 123.08 955.649 129.086L956.079 128.831C959.63 134.832 962.688 141.145 965.21 147.704L964.743 147.884C967.228 154.346 969.191 161.049 970.592 167.931L971.082 167.832C972.464 174.619 973.301 181.579 973.556 188.652L973.057 188.671C973.182 192.13 973.167 195.616 973.007 199.123L972.549 209.215L973.048 209.238L972.132 229.421L971.632 229.399L970.715 249.582L971.215 249.605L970.298 269.788L969.799 269.765L968.882 289.949L969.381 289.971L968.465 310.155L967.965 310.132L967.048 330.315L967.548 330.338L966.631 350.521L966.132 350.499L965.215 370.682L965.714 370.705L964.798 390.888L964.298 390.865L963.382 411.049L963.881 411.072L962.964 431.255L962.465 431.232L961.548 451.416L962.048 451.438L961.131 471.622L960.631 471.599L959.715 491.782L960.214 491.805L959.297 511.988L958.798 511.966L957.881 532.149L958.381 532.172L957.464 552.355L956.964 552.332L956.048 572.516L956.547 572.538L955.63 592.722L955.131 592.699L954.214 612.882L954.714 612.905L953.797 633.088L953.297 633.066L952.839 643.157C952.683 646.596 952.392 649.996 951.972 653.353L952.468 653.415C951.607 660.303 950.203 667.009 948.304 673.493L947.824 673.353C945.89 679.956 943.439 686.329 940.521 692.428L940.972 692.644C938.002 698.852 934.55 704.777 930.667 710.375L930.256 710.09C926.361 715.705 922.03 720.99 917.316 725.899L917.676 726.245C912.935 731.182 907.809 735.74 902.349 739.872L902.047 739.473C896.622 743.579 890.868 747.263 884.835 750.481L885.07 750.922C879.06 754.128 872.776 756.872 866.267 759.111L866.105 758.638C859.711 760.837 853.1 762.547 846.321 763.724L846.407 764.216C839.747 765.373 832.925 766.017 825.988 766.11L825.981 765.61C822.597 765.655 819.186 765.568 815.752 765.345C812.35 765.124 808.904 764.901 805.419 764.677L805.387 765.176C798.642 764.743 791.747 764.305 784.724 763.864L784.755 763.365C777.979 762.939 771.083 762.511 764.085 762.082L764.055 762.581C757.252 762.164 750.353 761.747 743.375 761.33L743.405 760.831C736.578 760.424 729.675 760.017 722.714 759.614L722.685 760.113C715.842 759.716 708.942 759.322 702.001 758.932L702.029 758.432C695.17 758.047 688.271 757.666 681.346 757.29L681.319 757.789C674.442 757.416 667.54 757.048 660.627 756.688L660.653 756.188C653.762 755.829 646.861 755.476 639.962 755.132L639.937 755.631C633.03 755.287 626.127 754.95 619.242 754.624L619.265 754.124C612.344 753.796 605.44 753.478 598.569 753.171L598.547 753.671C591.611 753.361 584.707 753.063 577.852 752.778L577.873 752.279C570.914 751.99 564.005 751.714 557.161 751.453L557.142 751.953C550.167 751.688 543.26 751.438 536.437 751.206L536.454 750.706C529.459 750.468 522.553 750.249 515.754 750.049L515.739 750.549C508.719 750.343 501.814 750.158 495.042 749.997L495.054 749.498C487.993 749.33 481.078 749.188 474.33 749.073L474.322 749.573C467.223 749.453 460.311 749.363 453.61 749.307L453.614 748.807C450.104 748.778 446.653 748.758 443.263 748.747C440.104 748.737 436.933 748.735 433.752 748.741L433.753 749.241C427.449 749.254 421.105 749.297 414.732 749.369L414.726 748.869C408.41 748.941 402.064 749.041 395.7 749.167L395.71 749.667C389.386 749.792 383.043 749.943 376.691 750.118L376.677 749.618C370.343 749.793 364 749.991 357.659 750.21L357.677 750.71C351.335 750.93 344.995 751.171 338.667 751.432L338.646 750.932C332.294 751.194 325.954 751.475 319.637 751.774L319.661 752.273C313.301 752.574 306.964 752.893 300.66 753.227L300.634 752.728C294.265 753.065 287.93 753.419 281.639 753.786L281.668 754.285C275.29 754.658 268.957 755.044 262.682 755.442L262.65 754.943C256.257 755.349 249.923 755.767 243.659 756.194L243.693 756.693C237.29 757.13 230.961 757.578 224.719 758.033L224.683 757.534C218.263 758.002 211.934 758.478 205.711 758.959L205.75 759.457C199.31 759.955 192.982 760.459 186.783 760.964L186.742 760.466C183.552 760.726 180.395 760.987 177.274 761.248C173.789 761.54 170.322 761.694 166.878 761.714L166.881 762.214C159.832 762.256 152.882 761.741 146.078 760.708L146.154 760.214C139.239 759.164 132.476 757.577 125.919 755.494L125.767 755.97C119.097 753.851 112.637 751.221 106.442 748.121L106.666 747.674C100.444 744.561 94.4912 740.974 88.861 736.955L88.5705 737.362C82.899 733.314 77.554 728.83 72.5917 723.954L72.9421 723.598C68.0011 718.743 63.4409 713.499 59.3172 707.909L58.9148 708.206C54.7989 702.626 51.1159 696.703 47.9209 690.481L48.3657 690.252C45.2236 684.133 42.5553 677.722 40.4133 671.062L39.9373 671.215C37.8333 664.673 36.2351 657.891 35.1922 650.908L35.6867 650.834C35.1786 647.432 34.8029 643.981 34.5652 640.488L33.8624 630.158L33.3635 630.192L31.958 609.532L32.4568 609.498L31.0512 588.839L30.5524 588.873L29.1468 568.213L29.6457 568.179L28.2401 547.52L27.7413 547.554L26.3357 526.894L26.8345 526.86L25.429 506.201L24.9301 506.235L23.5245 485.575L24.0234 485.541L22.6178 464.882L22.119 464.916L20.7134 444.256L21.2122 444.222L19.8067 423.562L19.3078 423.596L17.9023 402.937L18.4011 402.903L16.9955 382.243L16.4967 382.277L15.0911 361.618L15.59 361.584L14.1844 340.924L13.6856 340.958L12.28 320.299L12.7788 320.265L11.3733 299.605L10.8744 299.639L9.46884 278.98L9.96768 278.946L8.56211 258.286L8.06327 258.32L6.6577 237.661L7.15654 237.627L5.75097 216.967L5.25213 217.001L3.84655 196.341L4.3454 196.307L2.93983 175.648L2.44098 175.682L1.03541 155.022L1.53426 154.988L0.831475 144.659C0.610118 141.405 0.512807 138.171 0.535601 134.962L0.0356131 134.959C0.082325 128.382 0.631512 121.909 1.64962 115.581L2.14327 115.661C3.17989 109.218 4.70455 102.927 6.68153 96.8333L6.20593 96.679C8.22113 90.4673 10.7045 84.4593 13.6184 78.7024L14.0645 78.9283C16.9943 73.1402 20.361 67.6072 24.1264 62.3779L23.7206 62.0857C27.5167 56.8137 31.7163 51.849 36.2803 47.2412L36.6356 47.593C41.1768 43.0082 46.0803 38.7782 51.307 34.952L51.0117 34.5486C56.2229 30.7338 61.7543 27.3189 67.5678 24.3519L67.7951 24.7973C73.4998 21.8859 79.4772 19.4077 85.6911 17.4087L85.538 16.9327C91.6308 14.9726 97.95 13.4714 104.462 12.472L104.537 12.9662C107.706 12.4799 110.92 12.1129 114.176 11.8701C117.468 11.6246 120.81 11.379 124.2 11.1336L124.164 10.6349C130.696 10.162 137.404 9.69025 144.271 9.22308L144.305 9.72192C150.88 9.27459 157.602 8.83147 164.456 8.39556L164.424 7.89657C171.011 7.47761 177.721 7.06533 184.54 6.66238L184.57 7.16151C191.184 6.7707 197.901 6.38869 204.71 6.01791L204.683 5.51865C211.319 5.15729 218.043 4.80661 224.844 4.46887L224.869 4.96825C231.508 4.63853 238.221 4.32113 244.997 4.01817L244.975 3.51867C251.636 3.22086 258.359 2.937 265.134 2.66908L265.154 3.16869C271.83 2.90472 278.556 2.65623 285.324 2.42513L285.307 1.92542C291.985 1.6974 298.705 1.48632 305.456 1.294L305.471 1.7938C312.162 1.6032 318.885 1.43105 325.632 1.27912L325.62 0.779242C332.324 0.628289 339.05 0.497299 345.792 0.388024L345.8 0.887959C352.511 0.779194 359.236 0.691947 365.969 0.627947L365.964 0.127969C372.683 0.0641018 379.41 0.0233814 386.135 0.00752674L386.136 0.507526C392.863 0.491668 399.588 0.50069 406.305 0.536308L406.308 0.0363153C413.042 0.0720273 419.768 0.134471 426.477 0.22538L426.471 0.725334C433.21 0.816651 439.932 0.936694 446.63 1.08722L446.641 0.587344C453.393 0.739108 460.121 0.921851 466.814 1.13737L466.798 1.63712C473.554 1.85463 480.275 2.10554 486.953 2.3917L486.975 1.89216C493.734 2.18177 500.449 2.50748 507.112 2.87121L507.085 3.37046C513.853 3.73994 520.567 4.14865 527.217 4.59861L527.251 4.09975C534.029 4.55837 540.741 5.05984 547.378 5.60627L547.337 6.10458C554.107 6.66202 560.798 7.26626 567.4 7.91956L567.449 7.42199Z" fill="#fff" fill-opacity=".05" stroke="#FFC837" stroke-dasharray="20 20"/></svg>