<svg width="161" height="520" viewBox="0 0 161 520" fill="none" xmlns="http://www.w3.org/2000/svg"><path d="M92.8761 519.409C93.1252 519.528 93.4237 519.423 93.5428 519.174L95.4828 515.113C95.6018 514.864 95.4964 514.566 95.2472 514.447C94.998 514.328 94.6996 514.433 94.5805 514.682L92.856 518.292L89.2469 516.567C88.9977 516.448 88.6992 516.553 88.5801 516.803C88.4611 517.052 88.5666 517.35 88.8157 517.469L92.8761 519.409ZM0.806678 1.4881C1.84598 1.70951 2.87905 1.93213 3.90594 2.15597L4.11892 1.17891C3.09048 0.954735 2.05586 0.731779 1.01503 0.510052L0.806678 1.4881ZM9.99319 3.51361C11.9977 3.97101 13.9776 4.43326 15.9333 4.90032L16.1656 3.92768C14.2066 3.45981 12.2234 2.9968 10.2157 2.53867L9.99319 3.51361ZM21.7277 6.31597C23.635 6.79266 25.5183 7.27415 27.3778 7.76042L27.6308 6.79295C25.7677 6.30575 23.8809 5.82337 21.9702 5.34582L21.7277 6.31597ZM33.111 9.29535C35.1468 9.85336 37.1527 10.4174 39.1293 10.9874L39.4064 10.0265C37.4255 9.45529 35.4153 8.89008 33.3754 8.33092L33.111 9.29535ZM44.9709 12.7152C46.8889 13.2971 48.7779 13.8849 50.638 14.4787L50.9421 13.526C49.0773 12.9308 47.1837 12.3415 45.2612 11.7583L44.9709 12.7152ZM56.1326 16.2776C58.1066 16.9405 60.0466 17.6104 61.953 18.2874L62.2876 17.345C60.3757 16.6661 58.4303 15.9943 56.451 15.3296L56.1326 16.2776ZM67.74 20.4023C69.6337 21.1147 71.4921 21.8344 73.3159 22.5615L73.6862 21.6326C71.8562 20.903 69.9917 20.181 68.0921 19.4664L67.74 20.4023ZM78.6838 24.7645C80.5905 25.5702 82.4567 26.3845 84.2833 27.2073L84.694 26.2956C82.8602 25.4695 80.9867 24.652 79.0731 23.8434L78.6838 24.7645ZM89.852 29.801C91.6658 30.6746 93.4373 31.5574 95.1674 32.4493L95.6256 31.5604C93.8873 30.6643 92.1077 29.7775 90.286 28.9L89.852 29.801ZM100.273 35.1734C102.129 36.1985 103.933 37.235 105.686 38.2828L106.199 37.4244C104.436 36.3707 102.622 35.3285 100.757 34.2981L100.273 35.1734ZM110.794 41.4597C112.447 42.5299 114.05 43.6112 115.605 44.7035L116.18 43.8853C114.615 42.7855 113.001 41.6972 111.338 40.6203L110.794 41.4597ZM120.565 48.352C122.183 49.5995 123.743 50.8605 125.244 52.1351L125.891 51.3727C124.377 50.0877 122.806 48.8168 121.175 47.56L120.565 48.352ZM129.577 55.9991C131.102 57.4299 132.559 58.8768 133.95 60.3397L134.675 59.6506C133.27 58.1736 131.8 56.7133 130.261 55.2698L129.577 55.9991ZM137.927 64.7767C139.224 66.3146 140.453 67.8693 141.617 69.4406L142.42 68.8456C141.244 67.2571 140.002 65.6858 138.691 64.1319L137.927 64.7767ZM145.045 74.4119C146.117 76.0869 147.121 77.7798 148.057 79.4904L148.934 79.0102C147.987 77.2794 146.972 75.5669 145.887 73.8726L145.045 74.4119ZM150.765 84.885C151.598 86.7046 152.361 88.5434 153.058 90.401L153.994 90.0501C153.29 88.1706 152.517 86.31 151.674 84.4687L150.765 84.885ZM154.958 96.0657C155.527 97.9796 156.031 99.9127 156.471 101.865L157.447 101.645C157.001 99.6712 156.492 97.7164 155.916 95.7806L154.958 96.0657ZM157.601 107.746C157.913 109.703 158.168 111.678 158.366 113.672L159.361 113.573C159.161 111.56 158.904 109.565 158.588 107.588L157.601 107.746ZM158.796 119.706C158.882 121.668 158.918 123.646 158.907 125.641L159.907 125.647C159.918 123.636 159.881 121.641 159.795 119.662L158.796 119.706ZM158.733 131.671C158.631 133.649 158.487 135.642 158.301 137.65L159.297 137.742C159.484 135.721 159.629 133.714 159.731 131.722L158.733 131.671ZM157.64 143.599C157.382 145.595 157.087 147.606 156.756 149.631L157.743 149.792C158.075 147.757 158.372 145.735 158.632 143.728L157.64 143.599ZM155.715 155.464C155.338 157.422 154.93 159.392 154.493 161.375L155.47 161.59C155.908 159.599 156.318 157.62 156.697 155.654L155.715 155.464ZM153.123 167.262C152.655 169.178 152.162 171.104 151.646 173.041L152.613 173.299C153.13 171.355 153.625 169.422 154.095 167.5L153.123 167.262ZM150.032 178.887C149.486 180.8 148.919 182.722 148.334 184.655L149.291 184.945C149.878 183.007 150.446 181.08 150.994 179.162L150.032 178.887ZM146.558 190.374C145.948 192.289 145.322 194.215 144.68 196.15L145.63 196.465C146.272 194.526 146.9 192.597 147.511 190.677L146.558 190.374ZM142.761 201.839C142.116 203.718 141.458 205.606 140.788 207.503L141.731 207.836C142.402 205.937 143.061 204.046 143.707 202.164L142.761 201.839ZM138.745 213.219C138.067 215.093 137.378 216.976 136.681 218.867L137.619 219.213C138.317 217.32 139.006 215.435 139.685 213.559L138.745 213.219ZM134.59 224.49C133.885 226.372 133.173 228.262 132.453 230.159L133.388 230.514C134.108 228.615 134.821 226.724 135.527 224.84L134.59 224.49ZM130.306 235.797C129.594 237.656 128.878 239.523 128.157 241.396L129.09 241.755C129.811 239.881 130.528 238.014 131.24 236.154L130.306 235.797ZM125.983 247.037C125.259 248.913 124.532 250.796 123.802 252.686L124.735 253.046C125.464 251.157 126.192 249.274 126.916 247.397L125.983 247.037ZM121.645 258.279C120.924 260.15 120.202 262.027 119.48 263.911L120.414 264.269C121.136 262.386 121.857 260.509 122.578 258.639L121.645 258.279ZM117.313 269.581C116.604 271.444 115.895 273.314 115.188 275.189L116.123 275.542C116.83 273.668 117.539 271.799 118.248 269.937L117.313 269.581ZM113.072 280.83C112.369 282.716 111.668 284.608 110.971 286.506L111.91 286.851C112.606 284.955 113.307 283.064 114.009 281.179L113.072 280.83ZM108.906 292.169C108.225 294.053 107.549 295.941 106.877 297.836L107.819 298.17C108.49 296.278 109.167 294.391 109.847 292.509L108.906 292.169ZM104.877 303.535C104.217 305.436 103.562 307.343 102.915 309.255L103.862 309.576C104.509 307.666 105.162 305.762 105.821 303.863L104.877 303.535ZM101.007 314.961C100.378 316.869 99.7565 318.781 99.1429 320.699L100.095 321.003C100.708 319.089 101.329 317.179 101.957 315.275L101.007 314.961ZM97.3273 326.466C96.7338 328.384 96.1492 330.306 95.5742 332.233L96.5325 332.519C97.1065 330.595 97.6901 328.676 98.2826 326.762L97.3273 326.466ZM93.8818 338.02C93.3278 339.953 92.7841 341.892 92.2518 343.835L93.2162 344.099C93.7476 342.16 94.2901 340.225 94.8431 338.295L93.8818 338.02ZM90.6912 349.67C90.1846 351.612 89.6898 353.56 89.2077 355.512L90.1785 355.751C90.6595 353.804 91.1533 351.861 91.6589 349.922L90.6912 349.67ZM87.8004 361.381C87.3445 363.341 86.9021 365.307 86.4741 367.276L87.4513 367.489C87.8783 365.524 88.3196 363.563 88.7744 361.607L87.8004 361.381ZM85.2375 373.178C84.8403 375.149 84.4581 377.123 84.0917 379.102L85.075 379.284C85.4404 377.31 85.8216 375.341 86.2178 373.376L85.2375 373.178ZM83.0405 385.05C82.7068 387.034 82.3897 389.022 82.0899 391.014L83.0787 391.163C83.3777 389.176 83.6939 387.194 84.0266 385.216L83.0405 385.05ZM81.2454 396.983C80.9816 398.977 80.7358 400.974 80.5087 402.976L81.5023 403.088C81.7287 401.093 81.9738 399.102 82.2368 397.114L81.2454 396.983ZM79.8844 408.991C79.6966 410.989 79.528 412.991 79.3796 414.997L80.3768 415.071C80.5248 413.072 80.6928 411.077 80.88 409.085L79.8844 408.991ZM78.9955 421.016C78.888 423.026 78.8013 425.04 78.7361 427.057L79.7356 427.089C79.8005 425.079 79.887 423.073 79.9941 421.069L78.9955 421.016ZM78.6061 433.101C78.5848 435.104 78.5854 437.109 78.6085 439.119L79.6084 439.107C79.5854 437.105 79.5848 435.107 79.606 433.112L78.6061 433.101ZM78.7463 445.156C78.8152 447.171 78.9075 449.19 79.0238 451.212L80.0222 451.154C79.9063 449.14 79.8144 447.129 79.7457 445.121L78.7463 445.156ZM79.44 457.218C79.6018 459.213 79.7877 461.211 79.9982 463.211L80.9927 463.107C80.783 461.114 80.5979 459.124 80.4367 457.137L79.44 457.218ZM80.7043 469.223C80.9645 471.226 81.2499 473.232 81.5613 475.241L82.5495 475.088C82.2394 473.087 81.9551 471.089 81.696 469.094L80.7043 469.223ZM82.5501 481.143C82.905 483.113 83.2854 485.086 83.6919 487.06L84.6714 486.859C84.2665 484.892 83.8877 482.928 83.5342 480.966L82.5501 481.143ZM84.9907 492.993C85.4451 494.951 85.9258 496.911 86.4334 498.874L87.4015 498.624C86.8961 496.669 86.4174 494.717 85.9648 492.767L84.9907 492.993ZM88.0014 504.644C88.5502 506.569 89.1253 508.497 89.7274 510.427L90.682 510.129C90.0824 508.207 89.5097 506.287 88.9631 504.37L88.0014 504.644ZM91.6147 516.222C91.943 517.189 92.2781 518.157 92.6202 519.125L93.5631 518.792C93.2224 517.828 92.8886 516.864 92.5617 515.901L91.6147 516.222ZM92.6605 519.861C93.1588 520.099 93.7558 519.888 93.9939 519.389L97.874 511.269C98.1121 510.77 97.9011 510.173 97.4028 509.935C96.9045 509.697 96.3075 509.908 96.0694 510.406L92.6204 517.625L85.4021 514.176C84.9038 513.938 84.3068 514.149 84.0687 514.647C83.8306 515.145 84.0415 515.742 84.5398 515.981L92.6605 519.861ZM0.7025 1.97713C1.74104 2.19837 2.77335 2.42083 3.79945 2.6445L4.22541 0.690386C3.19619 0.466038 2.16081 0.242918 1.11921 0.0210251L0.7025 1.97713ZM9.88196 4.00108C11.8848 4.45811 13.8631 4.91998 15.8171 5.38665L16.2817 3.44136C14.3211 2.97309 12.3362 2.5097 10.3269 2.0512L9.88196 4.00108ZM21.6064 6.80105C23.5121 7.27731 25.3936 7.75835 27.2513 8.24415L27.7573 6.30921C25.8925 5.82155 24.0039 5.33872 22.0914 4.86074L21.6064 6.80105ZM32.9788 9.77756C35.0125 10.335 37.0164 10.8984 38.9907 11.4678L39.5449 9.5461C37.5619 8.97424 35.5495 8.40843 33.5075 7.84871L32.9788 9.77756ZM44.8258 13.1937C46.7415 13.7749 48.6282 14.362 50.486 14.955L51.0941 13.0497C49.227 12.4537 47.3312 11.8638 45.4064 11.2798L44.8258 13.1937ZM55.9734 16.7515C57.9448 17.4136 59.882 18.0826 61.7856 18.7585L62.4549 16.8738C60.5402 16.194 58.5921 15.5212 56.6102 14.8556L55.9734 16.7515ZM67.5639 20.8703C69.4546 21.5816 71.3101 22.3001 73.1308 23.0259L73.8714 21.1681C72.0383 20.4374 70.1707 19.7141 68.2681 18.9984L67.5639 20.8703ZM78.4892 25.2251C80.3923 26.0293 82.255 26.842 84.078 27.6632L84.8994 25.8397C83.0619 25.0119 81.1848 24.193 79.2677 23.3828L78.4892 25.2251ZM89.635 30.2514C91.4448 31.1232 93.2124 32.004 94.9383 32.8937L95.8547 31.116C94.1123 30.2178 92.3286 29.329 90.5029 28.4496L89.635 30.2514ZM100.031 35.6111C101.882 36.6335 103.681 37.6672 105.429 38.712L106.455 36.9952C104.687 35.9385 102.868 34.8935 100.998 33.8604L100.031 35.6111ZM110.523 41.8794C112.17 42.9462 113.768 44.024 115.317 45.1126L116.467 43.4762C114.897 42.3727 113.278 41.2808 111.61 40.2006L110.523 41.8794ZM120.26 48.748C121.872 49.9908 123.425 51.247 124.921 52.5163L126.215 50.9916C124.695 49.7013 123.117 48.4254 121.48 47.1639L120.26 48.748ZM129.235 56.3638C130.753 57.7882 132.203 59.2284 133.588 60.6842L135.037 59.3061C133.626 57.822 132.148 56.355 130.603 54.9051L129.235 56.3638ZM137.545 65.099C138.835 66.629 140.058 68.1755 141.215 69.7381L142.822 68.548C141.64 66.951 140.391 65.3714 139.074 63.8096L137.545 65.099ZM144.624 74.6816C145.69 76.347 146.688 78.03 147.619 79.7305L149.373 78.7701C148.42 77.0293 147.399 75.3068 146.308 73.603L144.624 74.6816ZM150.31 85.0931C151.139 86.902 151.897 88.7298 152.589 90.5765L154.462 89.8746C153.754 87.9841 152.977 86.1127 152.129 84.2605L150.31 85.0931ZM154.479 96.2082C155.045 98.1112 155.545 100.033 155.983 101.975L157.934 101.535C157.487 99.5505 156.975 97.5849 156.396 95.6381L154.479 96.2082ZM157.107 107.825C157.418 109.772 157.671 111.737 157.868 113.721L159.858 113.523C159.657 111.501 159.399 109.497 159.082 107.509L157.107 107.825ZM158.296 119.728C158.382 121.681 158.418 123.651 158.407 125.638L160.407 125.65C160.418 123.631 160.381 121.628 160.294 119.64L158.296 119.728ZM158.233 131.645C158.132 133.616 157.988 135.602 157.803 137.604L159.795 137.788C159.982 135.76 160.128 133.747 160.231 131.748L158.233 131.645ZM157.144 143.535C156.887 145.526 156.592 147.531 156.263 149.55L158.236 149.872C158.569 147.832 158.867 145.805 159.128 143.792L157.144 143.535ZM155.224 155.37C154.848 157.323 154.44 159.289 154.005 161.267L155.958 161.697C156.397 159.702 156.808 157.72 157.188 155.749L155.224 155.37ZM152.638 167.144C152.17 169.055 151.678 170.978 151.163 172.913L153.096 173.427C153.614 171.481 154.11 169.544 154.581 167.619L152.638 167.144ZM149.552 178.75C149.006 180.659 148.44 182.58 147.855 184.51L149.769 185.09C150.357 183.15 150.926 181.22 151.475 179.299L149.552 178.75ZM146.081 190.222C145.472 192.136 144.847 194.059 144.206 195.993L146.104 196.622C146.748 194.682 147.376 192.75 147.987 190.828L146.081 190.222ZM142.288 201.677C141.644 203.554 140.986 205.441 140.317 207.336L142.203 208.002C142.874 206.102 143.533 204.21 144.18 202.326L142.288 201.677ZM138.275 213.049C137.597 214.922 136.909 216.804 136.212 218.694L138.088 219.386C138.787 217.492 139.476 215.607 140.155 213.729L138.275 213.049ZM134.122 224.314C133.417 226.196 132.705 228.085 131.986 229.982L133.856 230.691C134.576 228.792 135.289 226.9 135.995 225.016L134.122 224.314ZM129.839 235.618C129.127 237.477 128.411 239.343 127.69 241.216L129.557 241.935C130.278 240.061 130.995 238.193 131.707 236.333L129.839 235.618ZM125.516 246.857C124.792 248.733 124.065 250.616 123.336 252.506L125.201 253.226C125.931 251.337 126.658 249.454 127.382 247.577L125.516 246.857ZM121.178 258.099C120.458 259.97 119.735 261.848 119.013 263.732L120.881 264.448C121.602 262.565 122.324 260.689 123.045 258.818L121.178 258.099ZM116.846 269.403C116.136 271.267 115.427 273.137 114.72 275.013L116.591 275.719C117.298 273.845 118.006 271.977 118.715 270.115L116.846 269.403ZM112.604 280.655C111.9 282.542 111.199 284.435 110.502 286.333L112.379 287.023C113.075 285.128 113.775 283.238 114.478 281.354L112.604 280.655ZM108.436 291.999C107.755 293.883 107.078 295.773 106.406 297.668L108.291 298.337C108.961 296.446 109.637 294.56 110.317 292.679L108.436 291.999ZM104.404 303.371C103.744 305.273 103.089 307.181 102.441 309.095L104.335 309.736C104.982 307.828 105.635 305.925 106.294 304.027L104.404 303.371ZM100.532 314.805C99.9028 316.713 99.2807 318.627 98.6667 320.546L100.572 321.156C101.184 319.243 101.804 317.334 102.432 315.431L100.532 314.805ZM96.8496 326.318C96.2557 328.237 95.6706 330.161 95.0951 332.09L97.0116 332.662C97.5851 330.74 98.1682 328.822 98.7602 326.91L96.8496 326.318ZM93.4011 337.882C92.8466 339.817 92.3025 341.758 91.7695 343.703L93.6984 344.231C94.2292 342.294 94.7713 340.361 95.3237 338.433L93.4011 337.882ZM90.2074 349.543C89.7002 351.488 89.2049 353.438 88.7223 355.392L90.6639 355.871C91.1444 353.926 91.6376 351.985 92.1427 350.048L90.2074 349.543ZM87.3134 361.267C86.857 363.23 86.4141 365.198 85.9855 367.17L87.9398 367.595C88.3664 365.632 88.8071 363.674 89.2614 361.72L87.3134 361.267ZM84.7473 373.08C84.3497 375.052 83.967 377.029 83.6001 379.011L85.5666 379.375C85.9316 377.404 86.3123 375.437 86.7079 373.475L84.7473 373.08ZM82.5474 384.967C82.2133 386.954 81.8957 388.944 81.5954 390.939L83.5731 391.237C83.8717 389.254 84.1875 387.274 84.5197 385.298L82.5474 384.967ZM80.7498 396.917C80.4856 398.914 80.2394 400.915 80.0119 402.919L81.9992 403.145C82.2252 401.153 82.4699 399.164 82.7325 397.18L80.7498 396.917ZM79.3866 408.945C79.1984 410.946 79.0296 412.951 78.8809 414.96L80.8755 415.108C81.0232 413.112 81.1909 411.12 81.3778 409.132L79.3866 408.945ZM78.4962 420.989C78.3885 423.003 78.3017 425.02 78.2364 427.041L80.2353 427.105C80.3002 425.099 80.3864 423.096 80.4934 421.096L78.4962 420.989ZM78.1061 433.096C78.0848 435.102 78.0854 437.111 78.1085 439.124L80.1084 439.101C80.0854 437.103 80.0848 435.109 80.106 433.117L78.1061 433.096ZM78.2465 445.173C78.3157 447.192 78.4081 449.215 78.5246 451.241L80.5213 451.126C80.4057 449.116 80.314 447.108 80.2454 445.104L78.2465 445.173ZM78.9416 457.258C79.1038 459.257 79.29 461.259 79.5009 463.264L81.4899 463.055C81.2807 461.066 81.096 459.08 80.935 457.096L78.9416 457.258ZM80.2085 469.287C80.4692 471.294 80.7552 473.305 81.0672 475.318L83.0436 475.012C82.7341 473.015 82.4504 471.021 82.1918 469.029L80.2085 469.287ZM82.058 481.232C82.4136 483.206 82.7948 485.182 83.2022 487.161L85.1611 486.758C84.7571 484.795 84.379 482.835 84.0263 480.877L82.058 481.232ZM84.5036 493.106C84.959 495.068 85.4407 497.032 85.9493 498.999L87.8856 498.499C87.3812 496.548 86.9035 494.6 86.4518 492.654L84.5036 493.106ZM87.5206 504.781C88.0705 506.71 88.6468 508.642 89.2501 510.576L91.1593 509.98C90.561 508.062 89.9894 506.146 89.444 504.233L87.5206 504.781ZM91.1413 516.383C91.4702 517.352 91.806 518.321 92.1488 519.291L94.0345 518.625C93.6945 517.663 93.3614 516.701 93.0352 515.74L91.1413 516.383Z" fill="#000" fill-opacity=".37"/></svg>