<svg width="30" height="30" viewBox="0 0 30 30" fill="none" xmlns="http://www.w3.org/2000/svg"><rect width="30" height="30" rx="6" fill="#2F60DE"/><path fill-rule="evenodd" clip-rule="evenodd" d="M17.122 3.07319C16.8493 3.21641 16.8117 3.3533 16.8117 4.20386C16.8117 5.16376 16.9367 5.41651 17.4115 5.41651C17.8863 5.41651 18.0113 5.16376 18.0113 4.20386C18.0113 3.54195 18.003 3.44884 17.9308 3.30825C17.7833 3.02067 17.4221 2.91571 17.122 3.07319ZM13.6531 4.42357C13.3557 4.49291 13.1536 4.86505 13.2463 5.17259C13.3093 5.38196 14.2924 6.3462 14.5003 6.40261C14.9825 6.53346 15.423 6.01445 15.1954 5.5835C15.1002 5.40327 14.0755 4.42254 13.9824 4.42254C13.9365 4.42254 13.875 4.41546 13.8457 4.40679C13.8164 4.39816 13.7298 4.40568 13.6531 4.42357ZM20.8551 4.42277C20.7094 4.45689 19.7396 5.37437 19.6282 5.5835C19.3991 6.01321 19.8403 6.5335 20.3227 6.40261C20.5306 6.3462 21.5137 5.38196 21.5767 5.17259C21.6653 4.87889 21.4229 4.42254 21.1785 4.42254C21.1337 4.42254 21.0731 4.41546 21.0438 4.40679C21.0145 4.39816 20.9296 4.40532 20.8551 4.42277ZM16.5717 6.66876C16.3158 6.78001 16.2658 6.90731 16.0307 8.04669C15.5373 10.4378 15.3819 10.6577 13.4893 11.642C13.0402 11.8756 12.4971 12.1628 12.2824 12.2802C11.8163 12.5351 11.8733 12.5302 11.768 12.3247C11.6539 12.1026 11.2784 11.7422 11.0379 11.6244C10.6343 11.4264 10.567 11.4211 8.46227 11.4206C6.22246 11.42 6.26033 11.415 6.09501 11.7372C5.96833 11.9841 5.96833 22.7838 6.09501 23.0308C6.26001 23.3524 6.22662 23.3478 8.43032 23.3478C10.7937 23.3478 10.941 23.3232 11.4584 22.842L11.6536 22.6605L11.9432 22.7448C12.724 22.972 13.6484 23.157 14.5727 23.2711C15.0947 23.3355 20.9912 23.3701 21.3146 23.3107C22.3978 23.1116 23.0306 22.0554 22.7097 20.982C22.6896 20.9146 22.7254 20.8852 22.9419 20.7914C23.9546 20.3527 24.309 19.101 23.6854 18.165L23.5624 17.9804L23.6854 17.7957C24.0973 17.1773 24.0973 16.3978 23.6854 15.7795L23.5624 15.5948L23.6854 15.4101C24.3411 14.4259 23.9343 13.1713 22.8143 12.7235C22.5961 12.6362 22.5415 12.6333 20.7639 12.6134L18.9377 12.593L19.1155 12.1755C20.0616 9.95468 20.0315 8.70096 19.0052 7.58457C18.3753 6.89928 17.1245 6.42854 16.5717 6.66876ZM17.678 8.04605C18.6813 8.6086 18.8485 9.69283 18.1801 11.3008C18.0937 11.5086 17.9359 11.8888 17.8294 12.1457L17.6358 12.6129H17.1621C16.7664 12.6129 16.6625 12.6261 16.5307 12.6929C16.1183 12.9021 16.1183 13.5165 16.5307 13.7256C16.6845 13.8036 16.7612 13.8057 19.511 13.8057C22.2607 13.8057 22.3374 13.8077 22.4912 13.8857C22.7805 14.0324 22.8845 14.3795 22.7296 14.6814C22.5865 14.9603 22.4518 14.9984 21.6104 14.9984C20.667 14.9984 20.4107 15.1258 20.4107 15.5948C20.4107 16.0638 20.667 16.1912 21.6104 16.1912C22.5538 16.1912 22.8101 16.3186 22.8101 16.7876C22.8101 17.2566 22.5538 17.384 21.6104 17.384C20.667 17.384 20.4107 17.5114 20.4107 17.9804C20.4107 18.4494 20.667 18.5767 21.6104 18.5767C22.5538 18.5767 22.8101 18.7041 22.8101 19.1731C22.8101 19.6421 22.5538 19.7695 21.6104 19.7695C20.769 19.7695 20.6343 19.8076 20.4912 20.0865C20.2863 20.486 20.5688 20.9623 21.0106 20.9623C21.6126 20.9623 21.8253 21.8043 21.2915 22.075C21.1379 22.1529 21.0609 22.1551 18.4008 22.1551C14.801 22.1551 14.1075 22.0957 12.4528 21.6457L12.0329 21.5316V17.6591V13.7867L12.5128 13.5172C12.7767 13.369 13.3436 13.0663 13.7725 12.8447C16.2785 11.5495 16.6615 11.0552 17.1709 8.45808C17.2181 8.21753 17.266 7.98868 17.2773 7.94948C17.3026 7.86233 17.3864 7.88252 17.678 8.04605ZM10.4944 12.6929C10.8372 12.8668 10.8132 12.5145 10.8132 17.384C10.8132 21.6122 10.812 21.6836 10.7327 21.838C10.5716 22.1522 10.5536 22.1551 8.77539 22.1551H7.2142V17.384V12.6129H8.77539C10.2611 12.6129 10.3442 12.6167 10.4944 12.6929ZM8.72424 19.8515C8.32035 20.0635 8.32539 20.6756 8.73276 20.8822C9.0364 21.0363 9.38547 20.9329 9.53307 20.6452C9.80531 20.1146 9.2539 19.5735 8.72424 19.8515Z" fill="#fff"/></svg>