<svg width="30" height="30" viewBox="0 0 30 30" fill="none" xmlns="http://www.w3.org/2000/svg"><rect width="30" height="30" rx="6" fill="#0BADF2"/><path fill-rule="evenodd" clip-rule="evenodd" d="M9.15951 6.04111C8.87522 6.15469 8.79177 6.37571 8.82713 6.92145L8.8519 7.30365H7.62419C5.95318 7.30365 5.97295 7.29179 6.00993 8.2712C6.18194 12.8229 8.55287 16.4191 11.6317 16.7981L11.9049 16.8318L12.2092 17.1198C12.3766 17.2783 12.6376 17.4948 12.7892 17.6011L13.0649 17.7942V18.97V20.1457L12.4756 20.1461C10.9539 20.1472 10.2817 20.8111 10.2256 22.3682L10.2045 22.9546L10.0803 22.9779C9.6074 23.0666 9.54305 23.7802 9.99111 23.9674C10.1642 24.0398 19.8358 24.0398 20.0089 23.9674C20.457 23.7802 20.3926 23.0666 19.9197 22.9779L19.7955 22.9546L19.7744 22.3682C19.7183 20.8111 19.0461 20.1472 17.5244 20.1461L16.9351 20.1457V18.97V17.7942L17.2108 17.6011C17.3624 17.4948 17.6235 17.2783 17.7908 17.1198L18.0952 16.8318L18.3683 16.7981C21.4472 16.4191 23.8181 12.8229 23.9901 8.2712C24.0271 7.29218 24.0461 7.30365 22.3803 7.30365H21.1571L21.1659 6.83166C21.1756 6.31467 21.1586 6.26077 20.9325 6.09199C20.8226 6.0099 9.36164 5.96037 9.15951 6.04111ZM20.0892 7.6291C19.8704 12.9463 17.5805 17.2958 15 17.2958C12.4195 17.2958 10.1297 12.9463 9.91086 7.6291L9.88732 7.05736H15H20.1127L20.0892 7.6291ZM8.92163 8.65822C9.15557 11.1907 9.86111 13.6525 10.83 15.3167C10.9829 15.5796 10.9853 15.579 10.5802 15.3752C8.74554 14.4525 7.31335 11.7806 7.10231 8.88692C7.09032 8.72243 7.07255 8.53613 7.0628 8.47291L7.04507 8.358L7.97037 8.36736L8.89563 8.37675L8.92163 8.65822ZM22.9371 8.47351C22.9274 8.53638 22.9097 8.72243 22.8977 8.88692C22.6867 11.7806 21.2545 14.4525 19.4199 15.3752C19.0147 15.579 19.0171 15.5796 19.1701 15.3167C20.1275 13.672 20.8802 11.0569 21.0714 8.711C21.0848 8.54651 21.1026 8.40004 21.111 8.38555C21.1193 8.37105 21.5376 8.35916 22.0404 8.35916H22.9547L22.9371 8.47351ZM14.4371 18.315C14.5242 18.334 14.7775 18.3496 15 18.3496C15.2225 18.3496 15.4759 18.334 15.563 18.315C15.65 18.296 15.7569 18.2723 15.8004 18.2624L15.8796 18.2445V19.1951V20.1457H15H14.1204V19.1951V18.2445L14.1996 18.2624C14.2431 18.2723 14.35 18.296 14.4371 18.315ZM18.2193 21.2774C18.6037 21.4906 18.6925 21.702 18.6935 22.4063L18.6943 22.9604H15H11.3057L11.3065 22.4063C11.3075 21.6671 11.4327 21.4045 11.8565 21.2521C12.0794 21.172 18.0722 21.1958 18.2193 21.2774Z" fill="#fff"/></svg>