<svg width="30" height="30" viewBox="0 0 30 30" fill="none" xmlns="http://www.w3.org/2000/svg"><rect width="30" height="30" rx="6" fill="#6FB146"/><path fill-rule="evenodd" clip-rule="evenodd" d="M14.0601 4.04683C8.3835 4.61835 4.62058 10.4354 6.47915 15.7661C7.45495 18.5648 9.24676 20.7551 13.8937 24.8296C14.5748 25.4268 15.4168 25.4268 16.0979 24.8296C20.7448 20.7551 22.5367 18.5648 23.5125 15.7661C25.6301 9.69223 20.5497 3.39343 14.0601 4.04683ZM16.2019 5.34673C21.0883 6.14836 24.0091 11.2054 22.1985 15.7293C21.4963 17.484 20.1782 19.2996 18.2254 21.2019C16.9701 22.4247 15.1302 24.0438 14.9958 24.0438C14.8614 24.0438 13.0215 22.4247 11.7662 21.2019C8.32507 17.8497 6.87075 14.8034 7.32382 11.8966C7.89267 8.24702 10.7068 5.62417 14.4344 5.26942C14.7429 5.24006 15.8457 5.2883 16.2019 5.34673ZM14.3731 8.74209C11.1784 9.31082 9.92188 13.1823 12.1944 15.4548C14.9008 18.1612 19.4979 15.8126 18.9082 12.0248C18.5818 9.92866 16.4354 8.37499 14.3731 8.74209ZM15.5512 10.007C17.6414 10.4498 18.4267 13.0336 16.9304 14.5448C15.2072 16.2851 12.2938 15.1066 12.2938 12.6692C12.2938 10.937 13.8681 9.65039 15.5512 10.007Z" fill="#fff"/></svg>