<svg width="30" height="30" viewBox="0 0 30 30" fill="none" xmlns="http://www.w3.org/2000/svg"><rect width="30" height="30" rx="6" fill="#E71414"/><path fill-rule="evenodd" clip-rule="evenodd" d="M10.7554 7.0338C6.63093 7.48961 4.56864 12.5481 7.11842 15.9548C7.47408 16.43 14.3494 23.5529 14.5842 23.6895C15.3021 24.1069 16.171 23.2645 15.7803 22.5298C15.7391 22.4523 14.4524 21.0921 12.9176 19.5034C8.52369 14.9557 8.60476 15.0417 8.37533 14.6869C7.00458 12.5673 7.99852 9.6553 10.3455 8.91494C11.7561 8.46993 13.2838 9.01653 14.2294 10.3046C14.6819 10.9209 15.2806 10.899 15.7992 10.2472C16.6015 9.23876 17.4834 8.78168 18.6379 8.77583C21.3182 8.76225 23.0604 11.743 21.8433 14.2602C21.5454 14.8765 21.6075 14.8077 17.6242 18.9342C16.5902 20.0054 16.5462 20.0667 16.5449 20.4337C16.5426 21.0896 17.2003 21.4953 17.7987 21.2072C17.9276 21.1451 20.8004 18.2037 22.4331 16.4621C25.6747 13.0042 23.5838 7.35329 18.9358 7.01057C17.6764 6.91771 16.163 7.44387 15.2259 8.30035C14.9963 8.51015 15.009 8.51029 14.7641 8.29595C13.6762 7.34396 12.1881 6.87545 10.7554 7.0338Z" fill="#fff"/></svg>