<svg width="40" height="41" viewBox="0 0 40 41" fill="none" xmlns="http://www.w3.org/2000/svg"><rect width="40" height="40.257" rx="20" fill="#FFC600"/><path d="M20 11.8831C22.6506 11.8831 23.0121 11.8831 24.0964 11.8831C25.0602 11.8831 25.5422 12.1256 25.9036 12.2468C26.3855 12.4893 26.747 12.6106 27.1084 12.9744C27.4699 13.3381 27.7108 13.7019 27.8313 14.1869C27.9518 14.5507 28.0723 15.0357 28.1928 16.0058C28.1928 17.0971 28.1928 17.3396 28.1928 20.1285C28.1928 22.9174 28.1928 23.1599 28.1928 24.2512C28.1928 25.2213 27.9518 25.7063 27.8313 26.0701C27.5904 26.5551 27.4699 26.9189 27.1084 27.2826C26.747 27.6464 26.3855 27.8889 25.9036 28.0102C25.5422 28.1314 25.0602 28.2527 24.0964 28.3739C23.0121 28.3739 22.7711 28.3739 20 28.3739C17.2289 28.3739 16.988 28.3739 15.9036 28.3739C14.9398 28.3739 14.4578 28.1314 14.0964 28.0102C13.6145 27.7677 13.253 27.6464 12.8916 27.2826C12.5301 26.9189 12.2892 26.5551 12.1687 26.0701C12.0482 25.7063 11.9277 25.2213 11.8072 24.2512C11.8072 23.1599 11.8072 22.9174 11.8072 20.1285C11.8072 17.3396 11.8072 17.0971 11.8072 16.0058C11.8072 15.0357 12.0482 14.5507 12.1687 14.1869C12.4096 13.7019 12.5301 13.3381 12.8916 12.9744C13.253 12.6106 13.6145 12.3681 14.0964 12.2468C14.4578 12.1256 14.9398 12.0043 15.9036 11.8831C16.988 11.8831 17.3494 11.8831 20 11.8831ZM20 10.0642C17.2289 10.0642 16.988 10.0642 15.9036 10.0642C14.8193 10.0642 14.0964 10.3067 13.494 10.5492C12.8916 10.7917 12.2892 11.1555 11.6867 11.7618C11.0843 12.3681 10.8434 12.8531 10.4819 13.5806C10.241 14.1869 10.1205 14.9145 10 16.0058C10 17.0971 10 17.4609 10 20.1285C10 22.9174 10 23.1599 10 24.2512C10 25.3425 10.241 26.0701 10.4819 26.6763C10.7229 27.2826 11.0843 27.8889 11.6867 28.4952C12.2892 29.1015 12.7711 29.344 13.494 29.7078C14.0964 29.9503 14.8193 30.0715 15.9036 30.1928C16.988 30.1928 17.3494 30.1928 20 30.1928C22.6506 30.1928 23.0121 30.1928 24.0964 30.1928C25.1807 30.1928 25.9036 29.9503 26.506 29.7078C27.1084 29.4652 27.7108 29.1015 28.3133 28.4952C28.9157 27.8889 29.1566 27.4039 29.5181 26.6763C29.759 26.0701 29.8795 25.3425 30 24.2512C30 23.1599 30 22.7961 30 20.1285C30 17.4609 30 17.0971 30 16.0058C30 14.9145 29.759 14.1869 29.5181 13.5806C29.2771 12.9744 28.9157 12.3681 28.3133 11.7618C27.7108 11.1555 27.2289 10.913 26.506 10.5492C25.9036 10.3067 25.1807 10.1855 24.0964 10.0642C23.0121 10.0642 22.7711 10.0642 20 10.0642Z" fill="#fff"/><path d="M20 14.9145C17.1084 14.9145 14.8193 17.2183 14.8193 20.1285C14.8193 23.0387 17.1084 25.3425 20 25.3425C22.8916 25.3425 25.1807 23.0387 25.1807 20.1285C25.1807 17.2183 22.8916 14.9145 20 14.9145ZM20 23.5237C18.1928 23.5237 16.6265 22.0686 16.6265 20.1285C16.6265 18.3097 18.0723 16.7333 20 16.7333C21.8072 16.7333 23.3735 18.1884 23.3735 20.1285C23.3735 21.9473 21.8072 23.5237 20 23.5237Z" fill="#fff"/><path d="M25.3012 16.0058C25.9666 16.0058 26.506 15.4629 26.506 14.7932C26.506 14.1235 25.9666 13.5806 25.3012 13.5806C24.6358 13.5806 24.0964 14.1235 24.0964 14.7932C24.0964 15.4629 24.6358 16.0058 25.3012 16.0058Z" fill="#fff"/></svg>