<svg width="994" height="151" viewBox="0 0 994 151" fill="none" xmlns="http://www.w3.org/2000/svg"><path d="M0.5 77.1886C0.5 74.2399 0.688086 71.3346 1.053 68.4843L0.557045 68.4208C1.31477 62.5022 2.82945 56.8179 5.00222 51.4701L5.46544 51.6583C7.67281 46.2254 10.5645 41.1423 14.0354 36.5179L13.6355 36.2177C17.1563 31.5267 21.2687 27.3043 25.8643 23.6626L26.1749 24.0545C30.7075 20.4626 35.7135 17.4399 41.0875 15.0953L40.8876 14.637C46.1778 12.3288 51.8223 10.6728 57.7218 9.77123L57.7973 10.2655C60.6374 9.8315 63.5371 9.57363 66.4855 9.50353C69.605 9.42937 72.8152 9.35331 76.1119 9.27551L76.1001 8.77565C82.2662 8.63013 88.7348 8.47848 95.4786 8.32164L95.4902 8.8215C101.724 8.6765 108.194 8.52706 114.877 8.37389L114.865 7.87402C121.166 7.72962 127.656 7.58191 134.318 7.43149L134.329 7.93137C140.632 7.78904 147.089 7.64429 153.685 7.49764L153.674 6.99776C160.008 6.85691 166.47 6.7143 173.046 6.57038L173.057 7.07026C179.418 6.93105 185.886 6.79062 192.447 6.64939L192.437 6.1495C198.817 6.01217 205.287 5.87407 211.834 5.73559L211.845 6.23548C218.24 6.10021 224.71 5.96457 231.243 5.82893L231.233 5.32903C237.641 5.19598 244.11 5.06292 250.63 4.93019L250.641 5.43008C257.059 5.29941 263.528 5.16905 270.036 5.03932L270.026 4.53942C276.455 4.41128 282.923 4.28376 289.421 4.15716L289.43 4.65706C295.868 4.53163 302.335 4.4071 308.823 4.28377L308.814 3.78386C315.26 3.66131 321.727 3.53994 328.206 3.42006L328.215 3.91997C334.67 3.80051 341.137 3.68253 347.606 3.5663L347.597 3.06638C354.061 2.95025 360.527 2.83587 366.988 2.72354L366.997 3.22347C373.469 3.11093 379.935 3.00045 386.387 2.89231L386.379 2.39238C392.86 2.28375 399.326 2.17748 405.768 2.07387L405.776 2.5738C412.266 2.46944 418.732 2.36777 425.164 2.2691L425.157 1.76915C431.658 1.66943 438.126 1.57277 444.55 1.47948L444.558 1.97942C451.071 1.88485 457.54 1.79373 463.956 1.70641L463.949 1.20646C470.475 1.11763 476.946 1.03271 483.351 0.952065L483.357 1.45203C489.898 1.36967 496.37 1.29175 502.762 1.21865L502.756 0.718681C509.313 0.643699 515.786 0.573777 522.163 0.509306L522.168 1.00928C528.741 0.942834 535.212 0.882178 541.568 0.827741L541.564 0.32776C548.153 0.271337 554.619 0.221595 560.948 0.179011L560.951 0.678999C567.553 0.634581 574.005 0.597951 580.292 0.569651L580.29 0.0696558C586.97 0.0395845 593.464 0.0189181 599.752 0.00830643L599.753 0.508306C603.016 0.502799 606.223 0.5 609.372 0.5C612.676 0.5 615.979 0.503081 619.28 0.509137L619.281 0.00913768C625.897 0.0212769 632.506 0.0453705 639.099 0.0805737L639.097 0.580567C645.72 0.615928 652.327 0.662499 658.912 0.719425L658.916 0.219444C665.545 0.27676 672.152 0.344571 678.727 0.422005L678.721 0.92197C685.361 1.00016 691.969 1.08816 698.537 1.18507L698.545 0.685125C705.194 0.783229 711.803 0.890464 718.363 1.0059L718.354 1.50582C725.012 1.62296 731.619 1.74855 738.167 1.8816L738.177 1.3817C744.844 1.51717 751.451 1.66037 757.987 1.81028L757.976 2.31015C764.654 2.46331 771.258 2.62348 777.781 2.78955L777.794 2.28971C784.486 2.4601 791.091 2.63672 797.599 2.81837L797.585 3.31817C804.294 3.50544 810.9 3.69806 817.391 3.89474L817.406 3.39497C824.137 3.59893 830.745 3.80726 837.217 4.01849L837.201 4.51823C843.959 4.73881 850.568 4.96256 857.015 5.18784L857.032 4.68815C863.822 4.92543 870.431 5.16441 876.842 5.40314L876.824 5.9028C883.647 6.15687 890.245 6.41068 896.599 6.6619L896.619 6.16228C903.526 6.43537 910.144 6.70538 916.447 6.96936L916.426 7.46892C919.807 7.6105 923.096 7.75034 926.291 7.88798C929.322 8.01853 932.299 8.3393 935.211 8.8384L935.296 8.34558C941.344 9.38223 947.117 11.1829 952.517 13.6431L952.31 14.0981C957.797 16.5977 962.897 19.7832 967.507 23.5433L967.823 23.1558C972.494 26.9653 976.664 31.3602 980.23 36.2265L979.827 36.5221C983.341 41.3173 986.263 46.5734 988.492 52.1798L988.957 51.9951C991.149 57.511 992.675 63.3635 993.439 69.4489L992.943 69.5111C993.311 72.4449 993.5 75.4334 993.5 78.4648C993.5 81.6976 993.286 84.8784 992.871 87.9941L993.366 88.0601C992.503 94.5436 990.777 100.748 988.309 106.557L987.849 106.362C985.337 112.274 982.051 117.774 978.121 122.736L978.513 123.046C974.527 128.079 969.883 132.562 964.713 136.367L964.417 135.964C959.318 139.717 953.706 142.806 947.709 145.106L947.888 145.573C941.995 147.833 935.732 149.337 929.222 149.968L929.174 149.471C926.045 149.774 922.859 149.874 919.628 149.758C916.424 149.644 913.137 149.526 909.769 149.406L909.751 149.906C903.399 149.679 896.763 149.444 889.868 149.202L889.885 148.702C883.486 148.477 876.864 148.245 870.04 148.008L870.022 148.508C863.562 148.284 856.921 148.055 850.116 147.822L850.133 147.322C843.64 147.099 836.997 146.873 830.222 146.644L830.205 147.144C823.709 146.924 817.091 146.702 810.365 146.478L810.381 145.978C803.859 145.761 797.234 145.542 790.52 145.321L790.504 145.821C783.961 145.606 777.334 145.39 770.633 145.174L770.649 144.674C764.09 144.462 757.461 144.249 750.772 144.037L750.757 144.536C744.185 144.327 737.555 144.118 730.879 143.91L730.894 143.41C724.311 143.204 717.681 142.999 711.015 142.795L711 143.295C704.406 143.092 697.777 142.891 691.121 142.691L691.136 142.192C684.532 141.993 677.903 141.796 671.257 141.601L671.242 142.101C664.629 141.906 658 141.714 651.363 141.524L651.378 141.024C644.755 140.834 638.125 140.646 631.498 140.461L631.484 140.961C624.852 140.776 618.223 140.593 611.604 140.414L611.618 139.914C604.977 139.734 598.347 139.557 591.738 139.384L591.725 139.883C585.074 139.709 578.445 139.538 571.845 139.371L571.858 138.871C565.197 138.703 558.567 138.539 551.978 138.379L551.966 138.879C545.295 138.718 538.666 138.561 532.088 138.409L532.1 137.909C525.418 137.755 518.789 137.607 512.224 137.464L512.213 137.964C505.52 137.818 498.894 137.679 492.344 137.546L492.355 137.046C485.647 136.91 479.02 136.782 472.486 136.66L472.477 137.16C465.737 137.035 459.096 136.918 452.568 136.81L452.576 136.31C445.814 136.197 439.173 136.094 432.666 136.002L432.659 136.502C425.877 136.405 419.241 136.319 412.768 136.245L412.774 135.745C405.974 135.667 399.354 135.602 392.934 135.551L392.93 136.051C386.053 135.996 379.404 135.957 373.007 135.936L373.009 135.436C369.65 135.424 366.361 135.417 363.145 135.416C359.705 135.414 356.276 135.417 352.858 135.425L352.859 135.925C345.956 135.942 339.098 135.979 332.29 136.034L332.286 135.534C325.375 135.591 318.516 135.667 311.715 135.761L311.722 136.261C304.805 136.357 297.948 136.471 291.157 136.603L291.147 136.103C284.222 136.236 277.365 136.388 270.583 136.555L270.595 137.055C263.662 137.226 256.807 137.414 250.037 137.617L250.022 137.117C243.079 137.325 236.225 137.548 229.469 137.785L229.486 138.284C222.529 138.528 215.675 138.787 208.931 139.057L208.911 138.558C201.936 138.838 195.079 139.131 188.35 139.435L188.373 139.934C181.384 140.25 174.533 140.577 167.829 140.913L167.804 140.413C160.795 140.765 153.947 141.126 147.272 141.494L147.3 141.993C140.254 142.381 133.402 142.777 126.757 143.176L126.727 142.677C119.642 143.103 112.792 143.533 106.193 143.963L106.226 144.462C99.0841 144.928 92.2369 145.394 85.7048 145.854L85.6697 145.355C82.1673 145.602 78.7554 145.847 75.4373 146.089C72.2269 146.324 69.0507 146.338 65.9239 146.144L65.8929 146.643C59.3939 146.24 53.1057 144.946 47.1619 142.878L47.3262 142.406C41.2825 140.303 35.5971 137.395 30.4128 133.806L30.1282 134.217C24.8645 130.573 20.1138 126.233 16.023 121.325L16.4071 121.005C12.3643 116.155 8.97103 110.747 6.37089 104.908L5.91413 105.112C3.35527 99.3656 1.5587 93.2044 0.659559 86.7469L1.15478 86.6779C0.723335 83.5794 0.5 80.4118 0.5 77.1886Z" stroke="#FFC837" stroke-dasharray="20 20"/></svg>