<svg width="36" height="28" viewBox="0 0 36 28" fill="none" xmlns="http://www.w3.org/2000/svg"><path fill-rule="evenodd" clip-rule="evenodd" d="M26.0142 0.202566C27.3841 0.961212 27.3255 3.08433 25.9148 3.80613L25.5552 3.99009L13.4231 3.96983C1.82719 3.95051 1.27953 3.94332 1.03209 3.80652C-0.323547 3.05703 -0.349377 0.943223 0.988037 0.202566L1.35385 0H13.5011H25.6484L26.0142 0.202566ZM34.7043 12.0771C36.33 12.565 36.4601 15.0787 34.9004 15.867C34.5139 16.0623 1.49636 16.0623 1.10992 15.867C-0.359512 15.1243 -0.359512 12.8752 1.10992 12.1325C1.45188 11.9596 34.1333 11.9057 34.7043 12.0771ZM18.4982 24.0833C19.844 24.542 20.2477 26.3346 19.2483 27.4146C18.6703 28.039 19.3069 27.9995 9.82964 27.9995H1.35385L0.988037 27.7969C-0.349377 27.0563 -0.323547 24.9425 1.03209 24.193C1.30726 24.0409 18.0647 23.9357 18.4982 24.0833Z" fill="#000"/></svg>