<svg width="33" height="33" viewBox="0 0 33 33" fill="none" xmlns="http://www.w3.org/2000/svg"><path fill-rule="evenodd" clip-rule="evenodd" d="M15.342 0.0635554C15.2178 0.078114 14.8404 0.119857 14.5032 0.156383C4.30448 1.26129 -2.42304 11.8409 0.82278 21.6702C4.34751 32.3443 17.4073 36.4574 26.3877 29.7218C35.8107 22.6541 35.0301 8.35767 24.8913 2.3177C22.1596 0.690286 18.1247 -0.262146 15.342 0.0635554ZM18.7937 2.14596C29.2707 3.89325 34.5099 15.8026 28.6454 24.5402C22.3468 33.9246 8.372 32.9956 3.40046 22.862C-1.08688 13.7153 5.08482 2.93219 15.342 1.99767C16.0364 1.93441 18.0417 2.02053 18.7937 2.14596ZM10.8376 6.69683C9.58454 7.03354 7.24849 9.56469 6.85796 11.0089C5.29895 16.7746 13.8399 26.2845 20.5679 26.2741C22.4973 26.2711 23.1069 25.9659 24.9554 24.0772C27.0758 21.9107 27.029 20.9043 24.6998 18.572C22.5122 16.3817 21.3034 16.2581 19.5236 18.0427C19.1926 18.3744 18.6554 18.375 18.3237 18.044L16.6519 16.3752L15.0493 14.7756C14.6778 14.4048 14.673 13.8043 15.0385 13.4276C16.749 11.6642 16.613 10.4957 14.4448 8.32765C12.7895 6.67235 12.0958 6.35876 10.8376 6.69683ZM11.8377 8.59634C11.9376 8.63345 12.4916 9.13353 13.0689 9.70757C14.5834 11.2135 14.5827 11.1932 13.1777 12.5872C12.1633 13.5936 12.0516 13.7442 12.0516 14.1042C12.0516 14.5318 12.2233 14.7265 15.3267 17.8187C19.1952 21.6732 18.7509 21.4936 20.4045 19.8712C21.8687 18.4346 21.7842 18.4332 23.2922 19.9192C24.878 21.4819 24.8763 21.4037 23.3578 22.9054C22.2121 24.0386 22.109 24.1141 21.4912 24.274C16.8397 25.4775 8.37484 17.5399 8.65013 12.2328C8.70581 11.1603 8.79381 10.999 9.98062 9.79286C11.252 8.50081 11.3724 8.42325 11.8377 8.59634Z" fill="url(#paint0_linear_0_873)"/><defs><linearGradient id="paint0_linear_0_873" x1="0" y1="16.5" x2="33" y2="16.5" gradientUnits="userSpaceOnUse"><stop stop-color="#FF8008"/><stop offset="1" stop-color="#FFC837"/></linearGradient></defs></svg>