<svg width="113" height="110" viewBox="0 0 113 110" fill="none" xmlns="http://www.w3.org/2000/svg"><path d="M113 56.5C113 86.0472 89.0472 110 59.5 110C29.9528 110 6 86.0472 6 56.5C6 26.9528 29.9528 3 59.5 3C89.0472 3 113 26.9528 113 56.5Z" fill="#FFC600"/><path d="M107 53.5C107 83.0472 83.0472 107 53.5 107C23.9528 107 0 83.0472 0 53.5C0 23.9528 23.9528 0 53.5 0C83.0472 0 107 23.9528 107 53.5Z" fill="#fff" fill-opacity=".28"/><path d="M106.5 53.5C106.5 82.7711 82.7711 106.5 53.5 106.5C24.2289 106.5 0.5 82.7711 0.5 53.5C0.5 24.2289 24.2289 0.5 53.5 0.5C82.7711 0.5 106.5 24.2289 106.5 53.5Z" stroke="#fff" stroke-opacity=".57"/><path d="M71.0002 55.5L46.2502 69.7894L46.2502 41.2106L71.0002 55.5Z" fill="#FDFDFD"/><defs><filter id="filter0_b_113_130" x="-21" y="-21" width="149" height="149" filterUnits="userSpaceOnUse" color-interpolation-filters="sRGB"><feFlood flood-opacity="0" result="BackgroundImageFix"/><feGaussianBlur in="BackgroundImage" stdDeviation="10.5"/><feComposite in2="SourceAlpha" operator="in" result="effect1_backgroundBlur_113_130"/><feBlend in="SourceGraphic" in2="effect1_backgroundBlur_113_130" result="shape"/></filter><filter id="filter1_b_113_130" x="-53.75" y="-58.789" width="224.75" height="228.578" filterUnits="userSpaceOnUse" color-interpolation-filters="sRGB"><feFlood flood-opacity="0" result="BackgroundImageFix"/><feGaussianBlur in="BackgroundImage" stdDeviation="50"/><feComposite in2="SourceAlpha" operator="in" result="effect1_backgroundBlur_113_130"/><feBlend in="SourceGraphic" in2="effect1_backgroundBlur_113_130" result="shape"/></filter></defs></svg>