<svg width="906" height="120" viewBox="0 0 906 120" fill="none" xmlns="http://www.w3.org/2000/svg"><path d="M0.5 61.5265C0.5 59.7741 0.583259 58.0411 0.746064 56.3313L0.248315 56.2839C0.585369 52.7442 1.26031 49.3026 2.241 45.9926L2.7204 46.1347C3.71487 42.7782 5.02669 39.5583 6.62174 36.5106L6.17874 36.2787C7.80918 33.1634 9.73282 30.2264 11.9138 27.505L12.304 27.8176C14.4743 25.1097 16.9017 22.6172 19.5505 20.3778L19.2276 19.9959C21.892 17.7433 24.7781 15.7442 27.8503 14.0362L28.0932 14.4732C31.0999 12.8016 34.2862 11.4114 37.618 10.3383L37.4647 9.86234C40.7498 8.8043 44.175 8.05164 47.7081 7.638L47.7662 8.13461C49.4714 7.93498 51.2021 7.81503 52.9546 7.77864L57.8758 7.67668L57.8654 7.17679C61.1076 7.10976 64.4631 7.04066 67.9259 6.96966L67.9361 7.46956C71.201 7.40262 74.5612 7.334 78.0118 7.26385L78.0016 6.76395C81.2878 6.69714 84.656 6.62893 88.1018 6.55946L88.1118 7.05936C91.3797 6.99347 94.7174 6.92644 98.1211 6.85838L98.1111 6.35848C101.392 6.29288 104.734 6.22632 108.134 6.1589L108.144 6.6588C111.446 6.59332 114.803 6.52702 118.212 6.46L118.202 5.96009C121.521 5.89484 124.889 5.8289 128.303 5.76235L128.313 6.26225C131.603 6.19813 134.935 6.13345 138.308 6.06827L138.298 5.56836C141.612 5.50433 144.965 5.43982 148.354 5.37491L148.364 5.87482C151.694 5.81103 155.061 5.74685 158.46 5.68235L158.45 5.18244C161.754 5.11975 165.089 5.05675 168.453 4.9935L168.463 5.49341C171.79 5.43086 175.146 5.36806 178.528 5.30509L178.519 4.80517C181.847 4.7432 185.202 4.68105 188.58 4.61877L188.589 5.11868C191.91 5.05746 195.254 4.99612 198.619 4.93471L198.61 4.43479C201.951 4.37383 205.312 4.31281 208.693 4.25178L208.702 4.75169C212.026 4.69168 215.368 4.63165 218.727 4.57166L218.718 4.07174C222.055 4.01215 225.409 3.95259 228.777 3.89312L228.786 4.39304C232.124 4.33411 235.476 4.27525 238.841 4.21653L238.833 3.71661C242.168 3.65841 245.516 3.60035 248.875 3.54245L248.883 4.04238C252.23 3.9847 255.588 3.92718 258.955 3.86989L258.947 3.36996C262.282 3.31321 265.627 3.25668 268.979 3.2004L268.988 3.70033C272.334 3.64415 275.688 3.58822 279.049 3.5326L279.041 3.03266C282.383 2.97734 285.732 2.9223 289.086 2.86761L289.094 3.36754C292.441 3.31295 295.793 3.2587 299.148 3.20483L299.14 2.70489C302.488 2.65114 305.839 2.59776 309.192 2.54481L309.2 3.04474C312.549 2.99184 315.9 2.93936 319.252 2.88734L319.244 2.3874C322.594 2.3354 325.945 2.28385 329.294 2.23281L329.302 2.73275C332.655 2.68166 336.007 2.63106 339.357 2.58102L339.35 2.08107C342.702 2.03099 346.051 1.98145 349.397 1.9325L349.404 2.43244C352.761 2.38333 356.114 2.3348 359.462 2.28691L359.454 1.78696C362.81 1.73895 366.161 1.69157 369.505 1.64487L369.512 2.14482C372.869 2.09793 376.22 2.05172 379.562 2.00625L379.555 1.50629C382.918 1.46054 386.271 1.41553 389.615 1.3713L389.621 1.87126C392.977 1.82687 396.322 1.78327 399.655 1.74051L399.649 1.24055C403.019 1.19731 406.378 1.15492 409.723 1.11342L409.729 1.61338C413.087 1.57172 416.432 1.53096 419.762 1.49116L419.756 0.991191C423.128 0.950874 426.485 0.911533 429.824 0.873216L429.829 1.37318C433.199 1.33452 436.551 1.2969 439.883 1.26037L439.878 0.7604C443.242 0.723523 446.586 0.68776 449.909 0.653162L449.914 1.15314C453.298 1.1179 456.659 1.08388 459.997 1.05112L459.992 0.551148C463.359 0.518091 466.702 0.486321 470.018 0.455893L470.023 0.955872C473.406 0.924826 476.762 0.895177 480.088 0.866986L480.084 0.367004C483.472 0.338288 486.829 0.311083 490.153 0.285452L490.157 0.785438C493.527 0.759449 496.863 0.735079 500.163 0.712393L500.16 0.212405C503.562 0.189019 506.925 0.167422 510.248 0.147686L510.251 0.647677C513.651 0.627481 517.008 0.609234 520.319 0.593012L520.317 0.093018C523.704 0.0764267 527.043 0.0619538 530.332 0.0496814L530.333 0.549678C533.74 0.536965 537.093 0.526614 540.388 0.518716L540.386 0.018717C543.814 0.0105015 547.179 0.00493892 550.479 0.00213168L550.479 0.502131C552.144 0.500715 553.793 0.5 555.424 0.5C557.073 0.5 558.722 0.500731 560.371 0.502178L560.371 0.00217865C563.67 0.00507624 566.968 0.0108459 570.263 0.0193785L570.262 0.519377C573.562 0.527923 576.859 0.539241 580.152 0.55322L580.154 0.053225C583.456 0.0672382 586.753 0.0839261 590.045 0.103178L590.042 0.60317C593.344 0.622478 596.641 0.644365 599.932 0.66872L599.935 0.168734C603.238 0.193181 606.535 0.220113 609.824 0.24942L609.82 0.7494C613.125 0.778847 616.423 0.81069 619.711 0.844815L619.717 0.344842C623.023 0.379151 626.321 0.415766 629.609 0.454572L629.604 0.954537C632.911 0.993574 636.209 1.03483 639.495 1.07818L639.502 0.578224C642.811 0.621876 646.109 0.667655 649.394 0.71544L649.387 1.21539C652.697 1.26354 655.995 1.31372 659.278 1.36582L659.286 0.865888C662.598 0.91844 665.895 0.972939 669.177 1.02926L669.169 1.52918C672.482 1.58604 675.779 1.64474 679.059 1.70517L679.068 1.20526C682.383 1.26633 685.68 1.32917 688.959 1.39363L688.949 1.89353C692.265 1.95874 695.562 2.02561 698.839 2.09401L698.849 1.59412C702.168 1.66339 705.465 1.73424 708.739 1.8065L708.728 2.30638C712.048 2.37965 715.345 2.45439 718.617 2.53043L718.629 2.03057C721.951 2.10779 725.248 2.18636 728.518 2.26613L728.506 2.76598C731.83 2.84709 735.127 2.92944 738.393 3.01285L738.406 2.51301C741.734 2.59798 745.03 2.68405 748.293 2.77105L748.28 3.27087C751.61 3.35963 754.905 3.44937 758.165 3.53988L758.179 3.04007C761.511 3.13261 764.805 3.22597 768.06 3.31994L768.046 3.81973C771.38 3.916 774.672 4.01291 777.921 4.11025L777.936 3.61048C781.284 3.71081 784.585 3.81159 787.837 3.9126L787.822 4.41236C791.174 4.51647 794.474 4.62081 797.719 4.72513L797.735 4.22539C801.09 4.33325 804.386 4.44109 807.622 4.54862L807.605 5.04834C810.961 5.15989 814.251 5.27111 817.472 5.38168L817.489 4.88198C820.867 4.99794 824.169 5.1132 827.391 5.22739L827.373 5.72707C830.758 5.84704 834.055 5.96583 837.26 6.08301L837.278 5.58334C840.677 5.70761 843.972 5.83008 847.157 5.95022L847.138 6.44987C848.808 6.51283 850.448 6.57516 852.056 6.63678C853.853 6.70558 855.626 6.85899 857.372 7.09303L857.439 6.59746C861.053 7.08192 864.554 7.90888 867.908 9.04416L867.748 9.51776C871.148 10.6688 874.398 12.1396 877.461 13.894L877.71 13.4601C880.838 15.2514 883.774 17.3355 886.483 19.6746L886.156 20.053C888.849 22.3787 891.316 24.9588 893.52 27.7552L893.912 27.4457C896.127 30.2551 898.079 33.281 899.732 36.4854L899.288 36.7147C900.907 39.8516 902.238 43.1612 903.247 46.6073L903.726 46.4669C904.722 49.8665 905.406 53.3978 905.748 57.0268L905.25 57.0737C905.415 58.8285 905.5 60.6066 905.5 62.4038C905.5 63.9197 905.44 65.421 905.324 66.9057L905.822 66.9449C905.581 70.0075 905.099 73.0003 904.394 75.9044L903.909 75.7865C903.194 78.7318 902.249 81.5851 901.093 84.3264L901.554 84.5206C900.371 87.3277 898.969 90.0184 897.37 92.5716L896.946 92.3062C895.348 94.8576 893.552 97.2705 891.579 99.5233L891.955 99.8527C889.959 102.132 887.784 104.248 885.452 106.18L885.133 105.795C882.826 107.706 880.365 109.435 877.771 110.961L878.024 111.392C875.427 112.919 872.698 114.245 869.858 115.347L869.677 114.881C866.904 115.957 864.025 116.818 861.06 117.445L861.163 117.934C858.24 118.552 855.234 118.943 852.164 119.089L852.141 118.59C850.653 118.661 849.151 118.674 847.636 118.626L842.773 118.474L842.757 118.974C839.538 118.873 836.217 118.77 832.8 118.664L832.816 118.164C829.572 118.064 826.242 117.961 822.83 117.856L822.815 118.356C819.583 118.256 816.278 118.155 812.904 118.052L812.919 117.552C809.682 117.453 806.382 117.352 803.02 117.25L803.005 117.75C799.743 117.651 796.425 117.551 793.052 117.449L793.067 116.949C789.788 116.851 786.458 116.751 783.08 116.65L783.065 117.149C779.817 117.052 776.524 116.954 773.189 116.855L773.204 116.355C769.927 116.258 766.611 116.16 763.255 116.061L763.24 116.561C759.955 116.464 756.632 116.366 753.275 116.268L753.29 115.768C750.023 115.673 746.724 115.577 743.394 115.48L743.38 115.98C740.087 115.884 736.763 115.788 733.412 115.692L733.427 115.192C730.146 115.097 726.839 115.003 723.508 114.907L723.493 115.407C720.206 115.313 716.894 115.219 713.56 115.125L713.575 114.625C710.275 114.532 706.954 114.438 703.613 114.344L703.599 114.844C700.315 114.752 697.012 114.659 693.691 114.567L693.705 114.067C690.4 113.975 687.077 113.883 683.738 113.791L683.724 114.291C680.436 114.2 677.132 114.109 673.814 114.019L673.828 113.519C670.525 113.429 667.208 113.339 663.878 113.249L663.865 113.749C660.567 113.659 657.256 113.57 653.935 113.481L653.948 112.982C650.646 112.893 647.333 112.805 644.01 112.717L643.997 113.217C640.692 113.129 637.378 113.042 634.056 112.955L634.069 112.455C630.766 112.369 627.455 112.282 624.137 112.197L624.124 112.696C620.815 112.611 617.5 112.526 614.179 112.441L614.192 111.941C610.886 111.856 607.576 111.772 604.262 111.689L604.249 112.188C600.938 112.105 597.623 112.022 594.306 111.939L594.319 111.439C591.009 111.357 587.697 111.275 584.385 111.194L584.373 111.693C581.06 111.612 577.747 111.531 574.435 111.451L574.447 110.951C571.133 110.871 567.82 110.792 564.509 110.713L564.497 111.213C561.182 111.134 557.869 111.056 554.56 110.978L554.572 110.478C551.255 110.401 547.942 110.324 544.633 110.248L544.622 110.748C541.303 110.671 537.989 110.596 534.682 110.521L534.693 110.021C531.375 109.946 528.064 109.873 524.76 109.8L524.749 110.299C521.425 110.226 518.109 110.153 514.803 110.082L514.813 109.582C511.496 109.51 508.189 109.44 504.892 109.37L504.881 109.87C501.55 109.8 498.23 109.731 494.923 109.662L494.933 109.163C491.617 109.094 488.313 109.027 485.023 108.962L485.013 109.461C481.675 109.395 478.352 109.329 475.046 109.265L475.055 108.765C471.73 108.701 468.422 108.638 465.131 108.576L465.121 109.076C461.787 109.013 458.471 108.952 455.176 108.893L455.185 108.393C451.848 108.333 448.532 108.274 445.237 108.217L445.229 108.717C441.903 108.659 438.6 108.603 435.321 108.549L435.33 108.049C431.977 107.994 428.65 107.94 425.351 107.889L425.343 108.389C422.012 108.337 418.708 108.287 415.434 108.238L415.441 107.738C412.091 107.689 408.772 107.642 405.486 107.597L405.479 108.097C402.125 108.051 398.805 108.008 395.523 107.967L395.529 107.467C392.195 107.425 388.9 107.386 385.646 107.349L385.64 107.849C382.266 107.811 378.936 107.776 375.652 107.743L375.657 107.243C372.289 107.21 368.97 107.18 365.702 107.153L365.698 107.653C362.345 107.625 359.047 107.601 355.806 107.58L355.809 107.08C352.428 107.058 349.109 107.04 345.856 107.026L345.854 107.526C342.454 107.511 339.125 107.501 335.873 107.495L335.874 106.995C334.228 106.992 332.602 106.99 330.995 106.989C329.371 106.988 327.749 106.988 326.129 106.99L326.13 107.49C322.881 107.492 319.644 107.5 316.417 107.511L316.415 107.011C313.166 107.022 309.928 107.038 306.702 107.057L306.705 107.557C303.455 107.577 300.218 107.601 296.993 107.629L296.989 107.129C293.738 107.157 290.5 107.19 287.276 107.226L287.282 107.726C284.03 107.762 280.793 107.802 277.571 107.846L277.564 107.346C274.311 107.391 271.074 107.439 267.852 107.491L267.86 107.991C264.607 108.044 261.37 108.1 258.15 108.16L258.14 107.66C254.885 107.72 251.648 107.784 248.429 107.852L248.439 108.352C245.183 108.42 241.946 108.492 238.729 108.567L238.717 108.067C235.459 108.143 232.222 108.223 229.005 108.305L229.018 108.805C225.76 108.889 222.523 108.976 219.308 109.066L219.294 108.566C216.033 108.657 212.796 108.752 209.582 108.849L209.598 109.349C206.336 109.448 203.099 109.55 199.888 109.655L199.871 109.155C196.607 109.261 193.37 109.371 190.161 109.483L190.178 109.982C186.913 110.096 183.677 110.213 180.47 110.332L180.452 109.832C177.185 109.954 173.949 110.078 170.745 110.204L170.764 110.703C167.497 110.832 164.262 110.963 161.062 111.096L161.041 110.597C157.772 110.733 154.539 110.871 151.344 111.011L151.366 111.511C148.094 111.654 144.861 111.8 141.668 111.947L141.645 111.448C138.363 111.599 135.124 111.752 131.929 111.906L131.953 112.406C128.67 112.565 125.435 112.725 122.248 112.886L122.222 112.387C118.94 112.553 115.709 112.72 112.531 112.888L112.558 113.387C109.267 113.561 106.033 113.736 102.859 113.911L102.831 113.412C99.5299 113.594 96.2927 113.776 93.1221 113.958L93.1508 114.457C89.8539 114.647 86.629 114.836 83.4786 115.024L83.4488 114.525C80.1243 114.724 76.8829 114.922 73.7275 115.118L73.7585 115.617C70.435 115.824 67.2068 116.029 64.0777 116.231L64.0455 115.732C62.4077 115.838 60.7971 115.943 59.2141 116.047C57.7058 116.147 56.2077 116.184 54.7224 116.163L54.7151 116.663C51.6521 116.618 48.6422 116.323 45.7068 115.796L45.7951 115.304C42.821 114.77 39.9241 113.997 37.1267 113.004L36.9595 113.476C34.0964 112.459 31.3368 111.215 28.7043 109.765L28.9456 109.327C26.3157 107.878 23.8139 106.221 21.4641 104.377L21.1555 104.77C18.7773 102.904 16.5536 100.849 14.5089 98.6266L14.8768 98.2881C12.8531 96.0884 11.0063 93.7234 9.36067 91.215L8.9426 91.4893C7.29304 88.9749 5.84367 86.3175 4.61843 83.5385L5.07593 83.3368C3.87873 80.6215 2.89753 77.7891 2.15504 74.86L1.67037 74.9829C0.938096 72.0941 0.43585 69.1122 0.185047 66.0563L0.683372 66.0154C0.561955 64.5359 0.5 63.0389 0.5 61.5265Z" stroke="#FFC837" stroke-dasharray="10 10"/></svg>