<svg width="1203" height="393" viewBox="0 0 1203 393" fill="none" xmlns="http://www.w3.org/2000/svg"><path d="M3.27415 271.539C1.8373 265.286 0.853745 258.857 0.362629 252.281L0.861241 252.244C0.62194 249.039 0.5 245.8 0.5 242.529V230.846H0V207.481H0.5V184.116H0V160.75H0.5V149.068C0.5 145.823 0.621353 142.605 0.85986 139.419L0.361256 139.382C0.849618 132.858 1.82728 126.467 3.25859 120.245L3.74586 120.358C5.20101 114.033 7.12689 107.885 9.48575 101.954L9.02115 101.77C11.4213 95.735 14.2679 89.9245 17.5216 84.3802L17.9528 84.6333C21.2181 79.0692 24.895 73.7742 28.9432 68.7914L28.5552 68.4761C32.6296 63.4611 37.0787 58.7611 41.8619 54.4197L42.1979 54.7899C46.953 50.474 52.0394 46.5139 57.417 42.9527L57.1409 42.5358C62.5015 38.9858 68.1503 35.8306 74.0477 33.1126L74.257 33.5667C80.0532 30.8952 86.0906 28.6478 92.3311 26.8648L92.1938 26.3841C98.3303 24.6309 104.663 23.325 111.155 22.5049L111.217 23.0009C114.386 22.6006 117.594 22.3164 120.835 22.1528C124.18 21.9841 127.578 21.8132 131.027 21.6403L131.002 21.1409C137.684 20.8059 144.556 20.4635 151.604 20.1147L151.628 20.6141C158.321 20.2829 165.172 19.946 172.166 19.6044L172.142 19.105C178.855 18.7772 185.7 18.445 192.666 18.1094L192.69 18.6088C199.429 18.2842 206.28 17.9563 213.233 17.626L213.209 17.1266C219.966 16.8056 226.82 16.4823 233.76 16.1574L233.784 16.6568C240.556 16.3398 247.41 16.0212 254.338 15.7018L254.315 15.2024C261.1 14.8896 267.954 14.5759 274.871 14.2622L274.893 14.7616C281.689 14.4533 288.543 14.1449 295.449 13.8368L295.427 13.3373C302.232 13.0338 309.087 12.7306 315.983 12.4285L316.005 12.928C322.819 12.6295 329.673 12.3319 336.561 12.0359L336.54 11.5363C343.362 11.2431 350.217 10.9513 357.097 10.6616L357.118 11.1611C363.948 10.8735 370.803 10.5879 377.676 10.3048L377.655 9.8052C384.493 9.52351 391.349 9.24431 398.215 8.96813L398.235 9.46773C405.08 9.19236 411.936 8.92 418.794 8.65114L418.775 8.15152C425.628 7.88289 432.484 7.61776 439.336 7.35665L439.355 7.85628C446.215 7.59487 453.071 7.33748 459.916 7.08462L459.898 6.58496C466.765 6.33128 473.622 6.08216 480.46 5.83813L480.478 6.33781C487.353 6.09247 494.209 5.85227 501.04 5.61773L501.023 5.11803C507.906 4.8817 514.763 4.65112 521.587 4.42684L521.603 4.92657C528.495 4.70006 535.352 4.47997 542.168 4.26685L542.152 3.76709C549.053 3.5513 555.911 3.34266 562.719 3.14174L562.734 3.64152C569.645 3.43755 576.503 3.24154 583.301 3.05409L583.287 2.55428C590.21 2.3634 597.07 2.1814 603.858 2.00891L603.871 2.50875C610.805 2.33254 617.665 2.16627 624.441 2.0106L624.43 1.51073C631.378 1.3511 638.239 1.20262 645.001 1.06603L645.011 1.56593C651.973 1.42529 658.831 1.29725 665.573 1.18262L665.565 0.68269C672.541 0.564076 679.394 0.459806 686.112 0.370766L686.119 0.870722C693.121 0.777912 699.975 0.701651 706.669 0.642939L706.665 0.142958C713.726 0.0810158 720.609 0.0386042 727.296 0.0168988L727.298 0.516896C730.751 0.505686 734.153 0.5 737.5 0.5C740.771 0.5 744.041 0.505431 747.31 0.516141L747.312 0.0161434C753.86 0.0375992 760.403 0.0802393 766.935 0.142848L766.93 0.642825C773.481 0.705612 780.021 0.788485 786.545 0.890218L786.553 0.390279C793.112 0.492551 799.655 0.61388 806.177 0.75302L806.166 1.25291C812.726 1.39286 819.265 1.55083 825.777 1.72556L825.791 1.22574C832.358 1.40193 838.898 1.59515 845.406 1.80409L845.39 2.30384C851.961 2.51483 858.5 2.74186 865.001 2.9836L865.02 2.48394C871.594 2.72839 878.129 2.98787 884.619 3.26099L884.598 3.76055C891.182 4.03759 897.719 4.32867 904.205 4.63236L904.228 4.13291C910.818 4.44144 917.354 4.76298 923.831 5.09602L923.806 5.59536C930.398 5.93433 936.929 6.28521 943.392 6.6464L943.42 6.14717C950.02 6.51604 956.55 6.89566 963.002 7.28432L962.972 7.78342C969.587 8.18192 976.12 8.58994 982.564 9.00564L982.596 8.50668C989.221 8.93405 995.752 9.36953 1002.18 9.81114L1002.15 10.31C1008.78 10.7659 1015.31 11.2283 1021.72 11.6951L1021.76 11.1964C1028.41 11.6809 1034.94 12.1701 1041.33 12.6615L1041.29 13.16C1047.96 13.6732 1054.48 14.1888 1060.85 14.704L1060.89 14.2057C1067.58 14.748 1074.1 15.2899 1080.43 15.8282L1080.39 16.3264C1083.69 16.6075 1086.95 16.8877 1090.15 17.1664C1093.23 17.435 1096.28 17.8155 1099.28 18.3038L1099.36 17.8103C1105.52 18.8111 1111.51 20.2628 1117.3 22.1291L1117.15 22.605C1123.04 24.5034 1128.72 26.8326 1134.16 29.5542L1134.39 29.107C1139.93 31.8763 1145.22 35.0503 1150.22 38.5887L1149.93 38.9971C1154.96 42.544 1159.69 46.4588 1164.11 50.7007L1164.46 50.34C1168.9 54.6033 1173.02 59.1956 1176.79 64.0759L1176.39 64.3814C1180.13 69.2244 1183.51 74.3521 1186.52 79.7242L1186.95 79.4802C1189.94 84.8284 1192.56 90.4177 1194.75 96.2085L1194.29 96.386C1196.45 102.076 1198.21 107.961 1199.54 114.003L1200.02 113.896C1201.33 119.845 1202.22 125.945 1202.67 132.162L1202.17 132.198C1202.39 135.238 1202.5 138.306 1202.5 141.398V151.602H1203V172.009H1202.5V192.416H1203V212.824H1202.5V233.231H1203V253.638H1202.5V263.842C1202.5 267.398 1202.36 270.918 1202.07 274.397L1202.57 274.437C1201.99 281.587 1200.82 288.564 1199.12 295.321L1198.64 295.199C1196.9 302.092 1194.61 308.757 1191.81 315.145L1192.26 315.345C1189.41 321.855 1186.03 328.077 1182.19 333.962L1181.77 333.688C1177.91 339.596 1173.57 345.162 1168.82 350.335L1169.19 350.673C1164.41 355.877 1159.21 360.684 1153.64 365.042L1153.34 364.648C1147.81 368.978 1141.92 372.863 1135.72 376.25L1135.96 376.689C1129.8 380.062 1123.33 382.944 1116.62 385.284L1116.46 384.812C1109.87 387.108 1103.05 388.881 1096.04 390.081L1096.12 390.574C1089.26 391.751 1082.21 392.38 1075.04 392.416L1075.04 391.916C1071.55 391.934 1068.02 391.81 1064.48 391.541C1061.3 391.299 1058.07 391.054 1054.81 390.807L1054.77 391.306C1048.41 390.824 1041.89 390.334 1035.25 389.837L1035.28 389.338C1028.9 388.86 1022.38 388.375 1015.75 387.885L1015.72 388.383C1009.31 387.909 1002.8 387.43 996.194 386.946L996.231 386.447C989.814 385.978 983.305 385.504 976.713 385.027L976.676 385.526C970.249 385.061 963.741 384.593 957.163 384.122L957.198 383.624C950.76 383.163 944.254 382.701 937.687 382.238L937.651 382.736C931.204 382.281 924.698 381.825 918.14 381.368L918.175 380.869C911.718 380.42 905.211 379.969 898.661 379.519L898.627 380.018C892.162 379.574 885.654 379.13 879.111 378.687L879.145 378.188C872.671 377.75 866.162 377.313 859.625 376.877L859.592 377.376C853.11 376.944 846.601 376.513 840.069 376.085L840.102 375.586C833.613 375.16 827.102 374.737 820.576 374.317L820.543 374.815C814.047 374.397 807.536 373.981 801.015 373.569L801.047 373.07C794.544 372.659 788.032 372.251 781.517 371.847L781.486 372.346C774.978 371.943 768.466 371.544 761.957 371.149L761.987 370.65C755.473 370.256 748.962 369.865 742.459 369.48L742.429 369.98C735.91 369.594 729.4 369.213 722.903 368.839L722.932 368.34C716.404 367.963 709.891 367.593 703.398 367.229L703.37 367.729C696.834 367.363 690.319 367.003 683.83 366.651L683.857 366.152C677.314 365.797 670.797 365.45 664.314 365.11L664.288 365.61C657.737 365.267 651.22 364.932 644.744 364.607L644.769 364.108C638.209 363.778 631.691 363.458 625.222 363.147L625.198 363.647C618.629 363.332 612.111 363.027 605.65 362.733L605.673 362.234C599.094 361.935 592.575 361.647 586.122 361.372L586.101 361.871C579.512 361.59 572.992 361.322 566.55 361.067L566.57 360.568C559.967 360.307 553.447 360.06 547.016 359.829L546.998 360.328C540.382 360.09 533.862 359.868 527.447 359.663L527.462 359.164C520.831 358.952 514.311 358.759 507.914 358.585L507.9 359.084C501.254 358.904 494.739 358.744 488.369 358.606L488.38 358.106C481.697 357.962 475.173 357.842 468.82 357.748L468.812 358.248C462.073 358.148 455.527 358.077 449.191 358.037L449.194 357.537C445.906 357.516 442.674 357.504 439.501 357.5C436.133 357.496 432.773 357.501 429.422 357.514L429.424 358.014C422.67 358.041 415.952 358.103 409.272 358.199L409.265 357.699C402.506 357.795 395.786 357.926 389.11 358.088L389.123 358.588C382.362 358.752 375.646 358.949 368.977 359.177L368.96 358.677C362.195 358.908 355.479 359.17 348.817 359.462L348.839 359.961C342.072 360.257 335.361 360.583 328.709 360.936L328.682 360.437C321.912 360.797 315.203 361.185 308.56 361.6L308.591 362.099C301.821 362.521 295.119 362.971 288.49 363.445L288.454 362.946C281.676 363.431 274.974 363.941 268.353 364.474L268.393 364.972C261.612 365.518 254.915 366.087 248.309 366.677L248.264 366.179C241.48 366.786 234.792 367.414 228.204 368.06L228.253 368.558C221.458 369.225 214.771 369.911 208.198 370.614L208.144 370.117C201.346 370.843 194.67 371.587 188.123 372.344L188.18 372.841C181.365 373.628 174.689 374.431 168.16 375.242L168.098 374.746C164.731 375.165 161.403 375.586 158.114 376.009C154.879 376.426 151.651 376.727 148.436 376.917L148.465 377.416C141.908 377.803 135.402 377.726 128.984 377.215L129.023 376.716C122.517 376.198 116.102 375.231 109.818 373.845L109.71 374.333C103.329 372.925 97.0835 371.087 91.014 368.848L91.187 368.379C85.0863 366.129 79.1644 363.473 73.4639 360.443L73.2292 360.885C67.4731 357.825 61.942 354.385 56.6792 350.596L56.9713 350.191C51.704 346.399 46.7067 342.257 42.0232 337.798L41.6784 338.16C36.967 333.674 32.5718 328.868 28.5372 323.773L28.9292 323.463C24.9123 318.391 21.2543 313.032 17.9993 307.421L17.5668 307.671C14.318 302.07 11.469 296.217 9.0631 290.144L9.52796 289.96C7.16127 283.986 5.22521 277.798 3.76145 271.427L3.27415 271.539Z" stroke="#FFC837" stroke-dasharray="20 20"/></svg>