<svg width="40" height="41" viewBox="0 0 40 41" fill="none" xmlns="http://www.w3.org/2000/svg"><rect width="40" height="40.257" rx="20" fill="#FFC600"/><path d="M20.9825 27.1735C13.466 27.1735 9.17864 21.8845 9 13.0835H12.7651C12.8888 19.5432 15.6646 22.2794 17.8632 22.8435V13.0835H21.4085V18.6546C23.5796 18.4148 25.8607 15.8761 26.6302 13.0835H30.1755C29.8855 14.5318 29.3075 15.9032 28.4776 17.1117C27.6477 18.3203 26.5837 19.3401 25.3523 20.1073C26.7269 20.8084 27.941 21.8007 28.9145 23.0187C29.888 24.2367 30.5988 25.6528 31 27.1735H27.0974C26.7373 25.8527 26.0054 24.6703 24.9934 23.7746C23.9814 22.8789 22.7343 22.3097 21.4085 22.1383V27.1735H20.9825V27.1735Z" fill="#fff"/></svg>