<svg width="1215" height="1396" viewBox="0 0 1215 1396" fill="none" xmlns="http://www.w3.org/2000/svg"><path d="M1.66836 184.173L0.749778 164.367L1.24924 164.343L0.789952 154.44C0.646203 151.341 0.614735 148.26 0.692178 145.203L0.192338 145.191C0.350754 138.937 0.963126 132.781 2.00092 126.76L2.49366 126.845C3.54846 120.726 5.04448 114.746 6.95149 108.947L6.47651 108.791C8.41863 102.885 10.7853 97.1653 13.545 91.6736L13.9918 91.8981C16.7654 86.3786 19.9376 81.0905 23.4758 76.0766L23.0673 75.7883C26.6346 70.7333 30.5726 65.9558 34.8483 61.4995L35.2091 61.8457C39.4644 57.4108 44.0554 53.2954 48.9495 49.5429L48.6453 49.1461C53.5275 45.4027 58.7103 42.0187 64.1612 39.037L64.4012 39.4756C69.7551 36.547 75.3689 34.0079 81.2119 31.8993L81.0421 31.429C86.7807 29.358 92.7394 27.7004 98.8892 26.4945L98.9854 26.9852C101.982 26.3975 105.025 25.9176 108.11 25.5498C111.336 25.1652 114.618 24.7781 117.952 24.3891L117.894 23.8925C124.34 23.1405 130.985 22.3814 137.814 21.6195L137.869 22.1164C144.322 21.3966 150.939 20.6744 157.71 19.9534L157.657 19.4562C164.139 18.766 170.761 18.0769 177.514 17.3922L177.564 17.8896C184.074 17.2296 190.704 16.5737 197.447 15.9247L197.399 15.427C203.931 14.7983 210.567 14.1761 217.301 13.5632L217.346 14.0611C223.894 13.4651 230.534 12.8777 237.257 12.3014L237.215 11.8032C243.778 11.2407 250.421 10.6887 257.137 10.1495L257.177 10.6479C263.752 10.1201 270.397 9.60459 277.105 9.10347L277.067 8.60486C283.654 8.11278 290.302 7.63459 297.005 7.17227L297.039 7.67108C303.636 7.2161 310.285 6.7765 316.982 6.35418L316.95 5.85517C323.558 5.4385 330.21 5.03865 336.904 4.65745L336.932 5.15664C343.547 4.77988 350.202 4.42134 356.889 4.0828L356.864 3.58344C363.489 3.2481 370.147 2.93237 376.832 2.63797L376.854 3.13748C383.485 2.84545 390.144 2.57442 396.825 2.32604L396.806 1.82639C403.446 1.57953 410.107 1.35506 416.785 1.15461L416.8 1.65439C423.445 1.45493 430.107 1.27927 436.78 1.12904L436.768 0.629166C443.421 0.479391 450.084 0.354878 456.754 0.257232L456.761 0.757178C463.417 0.65973 470.079 0.589046 476.743 0.546724L476.74 0.0467337C483.402 0.00441791 490.065 -0.00955143 496.725 0.00642124L496.723 0.50642C503.39 0.522409 510.052 0.568409 516.706 0.646021L516.711 0.146055C523.384 0.223893 530.048 0.333519 536.698 0.476549L536.687 0.976433C543.362 1.12001 550.023 1.29725 556.665 1.50979L556.681 1.01005C563.361 1.22382 570.022 1.47329 576.657 1.76013L576.636 2.25966C583.316 2.54842 589.971 2.87505 596.596 3.24125L596.624 2.74201C603.307 3.11145 609.959 3.52116 616.576 3.97286L616.542 4.4717C623.223 4.92784 629.866 5.42682 636.467 5.97043L636.508 5.47212C643.19 6.02239 649.828 6.61838 656.417 7.26195L656.368 7.75958C663.044 8.4117 669.669 9.11269 676.237 9.86447L676.294 9.36772C682.968 10.1316 689.582 10.9479 696.132 11.8186L696.066 12.3143C702.728 13.2001 709.323 14.1422 715.844 15.1428L715.919 14.6486C722.573 15.6697 729.15 16.7517 735.643 17.8969L735.556 18.3893C738.836 18.9679 742.094 19.5626 745.33 20.1737C748.686 20.8075 752.069 21.4685 755.475 22.1555L755.574 21.6654C762.239 23.0096 768.996 24.4532 775.83 25.9878L775.72 26.4756C782.379 27.9709 789.112 29.5527 795.906 31.213L796.025 30.7273C802.662 32.3495 809.357 34.0466 816.097 35.8113L815.971 36.295C822.601 38.031 829.276 39.8325 835.982 41.6924L836.115 41.2106C842.73 43.0452 849.376 44.9367 856.042 46.8783L855.902 47.3583C862.507 49.2822 869.131 51.2554 875.764 53.2713L875.909 52.7929C882.502 54.7967 889.103 56.8427 895.702 58.9246L895.551 59.4014C902.134 61.4781 908.714 63.5905 915.28 65.7322L915.435 65.2568C922.011 67.4013 928.573 69.5751 935.11 71.7719L934.951 72.2459C941.515 74.4514 948.054 76.68 954.558 78.9253L954.721 78.4526C961.285 80.7184 967.812 83.0012 974.293 85.2943L974.126 85.7657C980.677 88.0837 987.18 90.4123 993.623 92.7446L993.793 92.2744C1000.35 94.6482 1006.85 97.0259 1013.27 99.4002L1013.1 99.8692C1019.64 102.291 1026.12 104.708 1032.5 107.115L1032.68 106.647C1039.23 109.119 1045.69 111.58 1052.05 114.02L1051.87 114.487C1058.43 117.009 1064.88 119.51 1071.2 121.98L1071.38 121.515C1077.95 124.084 1084.38 126.62 1090.65 129.112L1090.46 129.577C1097.05 132.196 1103.46 134.768 1109.67 137.279L1109.86 136.815C1116.49 139.495 1122.9 142.106 1129.05 144.635L1128.86 145.097C1132.12 146.437 1135.32 147.753 1138.43 149.044C1141.33 150.243 1144.16 151.545 1146.92 152.943L1147.14 152.497C1152.78 155.354 1158.13 158.615 1163.15 162.234L1162.86 162.64C1167.95 166.3 1172.71 170.329 1177.12 174.68L1177.47 174.324C1181.93 178.726 1186.04 183.456 1189.76 188.467L1189.36 188.765C1193.07 193.762 1196.4 199.039 1199.32 204.547L1199.77 204.313C1202.69 209.821 1205.2 215.56 1207.28 221.481L1206.8 221.647C1208.85 227.491 1210.48 233.514 1211.66 239.67L1212.15 239.576C1213.32 245.666 1214.04 251.886 1214.31 258.191L1213.81 258.212C1213.94 261.307 1213.95 264.422 1213.86 267.553L1213.55 277.581L1214.05 277.597L1213.43 297.653L1212.93 297.638L1212.3 317.694L1212.8 317.709L1212.18 337.766L1211.68 337.75L1211.06 357.807L1211.56 357.822L1210.94 377.879L1210.44 377.863L1209.82 397.92L1210.32 397.935L1209.7 417.992L1209.2 417.976L1208.58 438.033L1209.08 438.048L1208.46 458.104L1207.96 458.089L1207.34 478.145L1207.84 478.161L1207.22 498.217L1206.72 498.202L1206.09 518.258L1206.59 518.274L1205.97 538.33L1205.47 538.315L1204.85 558.371L1205.35 558.387L1204.73 578.443L1204.23 578.428L1203.61 598.484L1204.11 598.499L1203.49 618.556L1202.99 618.54L1202.37 638.597L1202.87 638.612L1202.25 658.669L1201.75 658.653L1201.13 678.71L1201.63 678.725L1201.01 698.782L1200.51 698.766L1199.88 718.823L1200.38 718.838L1199.76 738.894L1199.26 738.879L1198.64 758.935L1199.14 758.951L1198.52 779.007L1198.02 778.992L1197.4 799.048L1197.9 799.064L1197.28 819.12L1196.78 819.105L1196.16 839.161L1196.66 839.177L1196.04 859.233L1195.54 859.218L1194.92 879.274L1195.42 879.289L1194.8 899.346L1194.3 899.33L1193.67 919.387L1194.17 919.402L1193.55 939.459L1193.05 939.443L1192.43 959.5L1192.93 959.515L1192.31 979.572L1191.81 979.556L1191.19 999.612L1191.69 999.628L1191.07 1019.68L1190.57 1019.67L1189.95 1039.73L1190.45 1039.74L1189.83 1059.8L1189.33 1059.78L1188.71 1079.84L1189.21 1079.85L1188.59 1099.91L1188.09 1099.89L1187.46 1119.95L1187.96 1119.97L1187.34 1140.02L1186.84 1140.01L1186.22 1160.06L1186.72 1160.08L1186.1 1180.14L1185.6 1180.12L1184.98 1200.18L1185.48 1200.19L1184.86 1220.25L1184.36 1220.23L1183.74 1240.29L1184.24 1240.31L1183.62 1260.36L1183.12 1260.35L1182.81 1270.37C1182.7 1273.93 1182.44 1277.44 1182.05 1280.9L1182.55 1280.96C1181.75 1288.08 1180.37 1295.01 1178.46 1301.71L1177.98 1301.57C1176.03 1308.4 1173.53 1314.98 1170.54 1321.28L1170.99 1321.49C1167.94 1327.9 1164.38 1334.02 1160.36 1339.78L1159.95 1339.49C1155.92 1345.27 1151.43 1350.7 1146.53 1355.73L1146.89 1356.08C1141.96 1361.14 1136.63 1365.79 1130.95 1369.99L1130.65 1369.59C1125.01 1373.76 1119.02 1377.47 1112.74 1380.69L1112.97 1381.14C1106.72 1384.35 1100.19 1387.06 1093.43 1389.23L1093.28 1388.75C1086.64 1390.88 1079.78 1392.49 1072.76 1393.53L1072.83 1394.02C1065.94 1395.04 1058.89 1395.51 1051.73 1395.39L1051.73 1394.89C1048.25 1394.83 1044.73 1394.63 1041.2 1394.29C1037.88 1393.97 1034.52 1393.64 1031.11 1393.31L1031.07 1393.81C1024.46 1393.17 1017.71 1392.53 1010.82 1391.87L1010.86 1391.38C1004.24 1390.75 997.482 1390.11 990.617 1389.47L990.571 1389.97C983.911 1389.35 977.147 1388.72 970.289 1388.09L970.335 1387.6C963.674 1386.99 956.926 1386.38 950.102 1385.76L950.057 1386.26C943.372 1385.66 936.613 1385.06 929.792 1384.46L929.836 1383.96C923.131 1383.37 916.366 1382.79 909.551 1382.2L909.508 1382.7C902.803 1382.12 896.05 1381.55 889.257 1380.98L889.299 1380.48C882.578 1379.92 875.818 1379.35 869.029 1378.8L868.988 1379.3C862.255 1378.75 855.492 1378.2 848.71 1377.66L848.749 1377.16C842.005 1376.63 835.241 1376.1 828.466 1375.57L828.427 1376.07C821.675 1375.55 814.912 1375.04 808.148 1374.53L808.185 1374.04C801.421 1373.53 794.655 1373.04 787.896 1372.55L787.86 1373.05C781.087 1372.56 774.321 1372.09 767.57 1371.62L767.605 1371.12C760.823 1370.66 754.057 1370.2 747.316 1369.76L747.283 1370.26C740.485 1369.81 733.713 1369.38 726.975 1368.96L727.006 1368.46C720.197 1368.04 713.423 1367.63 706.694 1367.24L706.665 1367.74C699.849 1367.34 693.078 1366.96 686.364 1366.6L686.391 1366.1C679.56 1365.74 672.788 1365.39 666.083 1365.06L666.059 1365.56C659.204 1365.22 652.42 1364.91 645.719 1364.62L645.741 1364.12C638.879 1363.82 632.103 1363.54 625.426 1363.3L625.407 1363.79C618.521 1363.54 611.739 1363.31 605.076 1363.11L605.091 1362.61C598.176 1362.4 591.389 1362.23 584.742 1362.09L584.732 1362.59C577.796 1362.44 571.014 1362.33 564.403 1362.26L564.409 1361.76C560.984 1361.72 557.604 1361.69 554.273 1361.68C551.015 1361.66 547.746 1361.66 544.468 1361.66L544.469 1362.16C537.965 1362.18 531.426 1362.23 524.859 1362.31L524.853 1361.81C518.338 1361.9 511.797 1362.02 505.235 1362.18L505.247 1362.68C498.728 1362.84 492.189 1363.03 485.638 1363.25L485.621 1362.75C479.097 1362.97 472.561 1363.22 466.02 1363.5L466.041 1364C459.513 1364.28 452.98 1364.59 446.449 1364.93L446.423 1364.43C439.889 1364.77 433.358 1365.13 426.836 1365.52L426.866 1366.02C420.329 1366.41 413.801 1366.82 407.29 1367.26L407.256 1366.76C400.714 1367.2 394.188 1367.66 387.686 1368.14L387.723 1368.64C381.178 1369.13 374.658 1369.63 368.17 1370.16L368.13 1369.66C361.579 1370.19 355.061 1370.74 348.584 1371.31L348.627 1371.8C342.07 1372.38 335.554 1372.97 329.087 1373.57L329.041 1373.07C322.478 1373.69 315.965 1374.32 309.512 1374.96L309.562 1375.46C302.995 1376.11 296.488 1376.77 290.053 1377.45L290 1376.95C283.425 1377.64 276.923 1378.34 270.504 1379.05L270.558 1379.55C263.973 1380.28 257.475 1381.01 251.074 1381.76L251.016 1381.26C244.415 1382.02 237.917 1382.79 231.533 1383.56L231.593 1384.06C224.978 1384.86 218.486 1385.66 212.129 1386.46L212.067 1385.97C208.789 1386.38 205.546 1386.79 202.342 1387.21C198.698 1387.67 195.069 1387.99 191.46 1388.16L191.483 1388.66C184.087 1389.01 176.776 1388.75 169.607 1387.91L169.664 1387.41C162.369 1386.57 155.221 1385.12 148.28 1383.14L148.142 1383.62C141.079 1381.6 134.228 1379.01 127.654 1375.91L127.868 1375.45C121.263 1372.34 114.938 1368.7 108.957 1364.58L108.674 1364.99C102.647 1360.85 96.9676 1356.22 91.7016 1351.17L92.0479 1350.81C86.8018 1345.77 81.9675 1340.31 77.6097 1334.46L77.2089 1334.76C72.8583 1328.93 68.9806 1322.72 65.6401 1316.18L66.0854 1315.95C62.8015 1309.52 60.0388 1302.78 57.8585 1295.76L57.381 1295.91C55.2427 1289.03 53.6624 1281.89 52.6974 1274.53L53.1932 1274.46C52.724 1270.89 52.4008 1267.26 52.2304 1263.58L51.771 1253.68L51.2716 1253.7L50.353 1233.9L50.8525 1233.87L49.9339 1214.07L49.4344 1214.09L48.5159 1194.28L49.0153 1194.26L48.0967 1174.46L47.5973 1174.48L46.6787 1154.67L47.1782 1154.65L46.2596 1134.84L45.7601 1134.87L44.8415 1115.06L45.341 1115.04L44.4224 1095.23L43.923 1095.25L43.0044 1075.45L43.5038 1075.43L42.5853 1055.62L42.0858 1055.64L41.1672 1035.84L41.6667 1035.81L40.7481 1016.01L40.2487 1016.03L39.3301 996.224L39.8295 996.201L38.911 976.394L38.4115 976.418L37.4929 956.612L37.9924 956.588L37.0738 936.782L36.5743 936.805L35.6558 916.999L36.1552 916.976L35.2366 897.17L34.7372 897.193L33.8186 877.387L34.3181 877.364L33.3995 857.558L32.9 857.581L31.9815 837.775L32.4809 837.752L31.5623 817.946L31.0629 817.969L30.1443 798.163L30.6438 798.14L29.7252 778.333L29.2257 778.357L28.3071 758.551L28.8066 758.527L27.888 738.721L27.3886 738.744L26.47 718.938L26.9694 718.915L26.0509 699.109L25.5514 699.132L24.6328 679.326L25.1323 679.303L24.2137 659.497L23.7143 659.52L22.7957 639.714L23.2951 639.691L22.3766 619.885L21.8771 619.908L20.9585 600.102L21.458 600.078L20.5394 580.272L20.0399 580.295L19.1214 560.489L19.6208 560.466L18.7022 540.66L18.2028 540.683L17.2842 520.877L17.7837 520.854L16.8651 501.048L16.3656 501.071L15.447 481.265L15.9465 481.242L15.0279 461.435L14.5285 461.459L13.6099 441.652L14.1093 441.629L13.1908 421.823L12.6913 421.846L11.7727 402.04L12.2722 402.017L11.3536 382.211L10.8541 382.234L9.93557 362.428L10.435 362.405L9.51645 342.599L9.01699 342.622L8.09841 322.816L8.59787 322.793L7.67929 302.986L7.17983 303.01L6.26125 283.203L6.76071 283.18L5.84214 263.374L5.34267 263.397L4.42409 243.591L4.92356 243.568L4.00498 223.762L3.50552 223.785L2.58694 203.979L3.0864 203.956L2.16782 184.15L1.66836 184.173Z" stroke="#FFC837" stroke-dasharray="20 20"/></svg>