<svg width="40" height="41" viewBox="0 0 40 41" fill="none" xmlns="http://www.w3.org/2000/svg"><rect width="40" height="40.257" rx="20" fill="#FFC600"/><path d="M27.9268 12.14C25.9512 10.1586 23.3171 9.05786 20.5366 9.05786C14.7561 9.05786 10.0732 13.7545 10.0732 19.552C10.0732 21.3866 10.5854 23.2212 11.4634 24.7623L10 30.1929L15.561 28.7252C17.0976 29.5324 18.7805 29.9727 20.5366 29.9727C26.3171 29.9727 31 25.276 31 19.4786C30.9268 16.7633 29.9024 14.1215 27.9268 12.14ZM25.5854 23.2946C25.3659 23.8817 24.3415 24.4688 23.8293 24.5422C23.3902 24.6156 22.8049 24.6156 22.2195 24.4688C21.8537 24.322 21.3415 24.1753 20.7561 23.8817C18.122 22.7809 16.439 20.1391 16.2927 19.9189C16.1463 19.7721 15.1951 18.5246 15.1951 17.2036C15.1951 15.8827 15.8537 15.2956 16.0732 15.0021C16.2927 14.7085 16.5854 14.7085 16.8049 14.7085C16.9512 14.7085 17.1707 14.7085 17.3171 14.7085C17.4634 14.7085 17.6829 14.6352 17.9024 15.1489C18.122 15.6625 18.6341 16.9835 18.7073 17.0569C18.7805 17.2036 18.7805 17.3504 18.7073 17.4972C18.6341 17.644 18.561 17.7907 18.4146 17.9375C18.2683 18.0843 18.1219 18.3044 18.0488 18.3778C17.9024 18.5246 17.7561 18.6714 17.9024 18.8915C18.0488 19.185 18.561 19.9923 19.3659 20.7261C20.3902 21.6068 21.1951 21.9003 21.4878 22.0471C21.7805 22.1939 21.9268 22.1205 22.0732 21.9737C22.2195 21.8269 22.7317 21.2398 22.878 20.9463C23.0244 20.6528 23.2439 20.7261 23.4634 20.7995C23.6829 20.8729 25 21.5334 25.2195 21.6802C25.5122 21.8269 25.6585 21.9003 25.7317 21.9737C25.8049 22.1939 25.8049 22.7075 25.5854 23.2946Z" fill="#fff"/></svg>